<svg xmlns="http://www.w3.org/2000/svg" viewBox="0 0 27.46 26.48" width="128" height="128">
    <defs>
        <style>.cls-1{fill:#ffffff;}</style>
    </defs>
    <title>commander-lvl4</title>
    <g id="Слой_2" data-name="Слой 2">
        <g id="Слой_1-2" data-name="Слой 1">
            <circle class="cls-2" cx="13.73" cy="13.27" r="6.42"/>
            <path d="M13.73,7.09a6.17,6.17,0,1,1-6.17,6.17,6.18,6.18,0,0,1,6.17-6.17m0-.5a6.67,6.67,0,1,0,6.67,6.67,6.67,6.67,0,0,0-6.67-6.67Z"/>
            <path class="cls-1"
                  d="M23,13.81h-.66a8.46,8.46,0,0,1-1.93,4.92c-.24.29-1.44.17-1.44.17s0,1.19-.3,1.42a8.45,8.45,0,0,1-4.32,1.48v.66A9.15,9.15,0,0,0,23,13.81Z"/>
            <path class="cls-1"
                  d="M20.25,7.8a8.46,8.46,0,0,1,2.08,5.1H23a9.12,9.12,0,0,0-2.67-6l-.2-.19L19,7.84C19.3,8.13,20,7.47,20.25,7.8Z"/>
            <path class="cls-1"
                  d="M8.56,18.9s-1.19.12-1.44-.17a8.46,8.46,0,0,1-1.93-4.92H4.54a9.15,9.15,0,0,0,8.65,8.65V21.8a8.45,8.45,0,0,1-4.32-1.48C8.52,20.09,8.56,18.9,8.56,18.9Z"/>
            <path class="cls-1"
                  d="M7.27,7.8c.29-.34,1,.33,1.29,0L7.4,6.72l-.2.19a9.12,9.12,0,0,0-2.67,6h.66A8.46,8.46,0,0,1,7.27,7.8Z"/>
            <path class="cls-1"
                  d="M23.53,12.75h3.92s-3.27-1-3.27-2c0-2.7-2.94-3.92-2.94-3.92a7.94,7.94,0,0,1,2,3.27C23.33,10.73,23.53,12.75,23.53,12.75Z"/>
            <path class="cls-1"
                  d="M15.36,24.19c1-1.06,5.23-2.61,5.23-2.61l1.63.33V19.61A35.23,35.23,0,0,1,24.51,15c.55-.55,2.94-1,2.94-1H23.53s-.81,4.41-2.61,6.21a11.67,11.67,0,0,1-6.54,2.94v3.27A9.39,9.39,0,0,1,15.36,24.19Z"/>
            <path class="cls-1"
                  d="M3.92,12.75H0s3.27-1,3.27-2c0-2.7,2.94-3.92,2.94-3.92a7.94,7.94,0,0,0-2,3.27C4.13,10.73,3.92,12.75,3.92,12.75Z"/>
            <path class="cls-1"
                  d="M12.09,24.19c-1-1.06-5.23-2.61-5.23-2.61l-1.63.33V19.61A35.23,35.23,0,0,0,2.94,15c-.55-.55-2.94-1-2.94-1H3.92s.81,4.41,2.61,6.21a11.67,11.67,0,0,0,6.54,2.94v3.27A9.39,9.39,0,0,0,12.09,24.19Z"/>
            <path class="cls-1"
                  d="M16,6.92a16.2,16.2,0,0,1,4.25-.71,18.51,18.51,0,0,1,5.56,2s-2.2-2.83-3.27-3.27c-.6-.25-2.29.33-2.94.33C18,5.23,16,6.92,16,6.92Z"/>
            <path class="cls-1"
                  d="M17.16,3.6s-1.31-.65-1.31-1.31,1-1.31,1-1.31-2,1.27-2,2C14.87,3.92,17.16,3.6,17.16,3.6Z"/>
            <path class="cls-1"
                  d="M11.11,6.92a16.2,16.2,0,0,0-4.25-.71,18.51,18.51,0,0,0-5.56,2S3.51,5.35,4.58,4.9c.6-.25,2.29.33,2.94.33C9.15,5.23,11.11,6.92,11.11,6.92Z"/>
            <path class="cls-1"
                  d="M10.31,3.6s1.31-.65,1.31-1.31-1-1.31-1-1.31,2,1.27,2,2C12.6,3.92,10.31,3.6,10.31,3.6Z"/>
            <path class="cls-1"
                  d="M13.07,0a5,5,0,0,0-.33,1.31,2.73,2.73,0,0,0,.33.65.64.64,0,0,1-.65-.65A4.27,4.27,0,0,1,13.07,0Z"/>
            <path class="cls-1"
                  d="M14.38,0a5,5,0,0,1,.33,1.31,2.73,2.73,0,0,1-.33.65A.64.64,0,0,0,15,1.31,4.27,4.27,0,0,0,14.38,0Z"/>
            <polygon class="cls-1"
                     points="13.73 0.14 14.82 4.07 19.09 4.04 15.35 6.09 17.05 10.35 13.73 6.97 10.41 10.35 12.11 6.09 8.36 4.04 12.64 4.07 13.73 0.14"/>
        </g>
    </g>
</svg>