<svg xmlns="http://www.w3.org/2000/svg" viewBox="0 0 32.73 32.73"><defs><style>.cls-1,.cls-2,.cls-3{fill:none;}.cls-2{stroke:#f4e383;stroke-miterlimit:10;stroke-width:1.2px;}.cls-3{stroke:#cc3d3e;stroke-linecap:round;stroke-linejoin:round;}</style></defs><title>defend</title><g id="Слой_2" data-name="Слой 2"><g id="Слой_1-2" data-name="Слой 1"><circle class="cls-1" cx="16.37" cy="16.37" r="16.37"/><path class="cls-2" d="M16,8.76a15.41,15.41,0,0,1-6,3.3.6.6,0,0,0-.43.58v7.72a3.34,3.34,0,0,0,1.78,3l4.15,2.18a1.91,1.91,0,0,0,1.78,0l4.15-2.18a3.34,3.34,0,0,0,1.78-3V12.64a.6.6,0,0,0-.43-.58,15.4,15.4,0,0,1-6-3.3A.6.6,0,0,0,16,8.76Z"/><polyline class="cls-3" points="19.63 15.92 16.38 19.16 14.23 17.01"/></g></g></svg>