<svg xmlns="http://www.w3.org/2000/svg" viewBox="0 0 32.73 32.73"><defs><style>.cls-1,.cls-2,.cls-4{fill:none;}.cls-2,.cls-4{stroke:#cc3d3e;}.cls-2{stroke-linecap:round;stroke-linejoin:round;}.cls-3{fill:#cc3d3e;}.cls-4{stroke-miterlimit:10;}.cls-5{fill:#f4e383;}</style></defs><title>demolish</title><g id="Слой_2" data-name="Слой 2"><g id="Слой_1-2" data-name="Слой 1"><circle class="cls-1" cx="16.37" cy="16.37" r="16.37"/><line class="cls-2" x1="16.61" y1="14.01" x2="16.51" y2="13.8"/><circle class="cls-3" cx="14.03" cy="19.17" r="5.91" transform="translate(-9.44 15.53) rotate(-45)"/><path class="cls-3" d="M13.85,13.33h5.6a0,0,0,0,1,0,0V18.4a1.34,1.34,0,0,1-1.34,1.34H15.2a1.34,1.34,0,0,1-1.34-1.34V13.33a0,0,0,0,1,0,0Z" transform="translate(16.74 40.01) rotate(-135)"/><path class="cls-4" d="M19.31,13.89l1-1a1.29,1.29,0,0,0,0-1.82h0a1.29,1.29,0,0,0-1.82,0l-.12.12a1.29,1.29,0,0,1-1.82,0l-.6-.6"/><path class="cls-5" d="M10.49,16.48c-.48,1,.36.69,1.43.63s1.94.1,2.42-.86,0-1.69-1.05-1.62A3.72,3.72,0,0,0,10.49,16.48Z"/><path class="cls-5" d="M14.82,11.85,14.59,10A.35.35,0,0,1,15,9.67l1,.26a.35.35,0,0,0,.38-.15L17.81,7.5a.35.35,0,0,1,.58,0l1.26,1.93a.35.35,0,0,0,.32.16l2.15-.22a.35.35,0,0,1,.35.49l-.61,1.31a.35.35,0,0,0,.07.39l1.95,2a.35.35,0,0,1-.14.57l-2.68.83,5.82.42a.35.35,0,0,0,.3-.55L24.7,11.5a.35.35,0,0,1-.07-.26L25.09,8a.35.35,0,0,0-.33-.39l-4-.16a.35.35,0,0,1-.28-.16l-1.9-3a.35.35,0,0,0-.58,0L15.86,7.72a.35.35,0,0,1-.24.16l-2.94.43a.35.35,0,0,0-.22.56Z"/></g></g></svg>