<svg xmlns="http://www.w3.org/2000/svg" viewBox="0 0 14.43 16.5" width="256" height="256">
    <defs>
        <style>
            .cls-2{fill:none;stroke:#84b012;stroke-miterlimit:10;stroke-width:.6px}
        </style>
    </defs>
    <g>
        <path d="M14.18 10c0 1.3-2.77 7.34-7 5.37C4.66 11.41.44 13 .25 10c0-8.22 2.6-2.75 6.15-6 6.09-5.55 7.78 2.35 7.78 6z" opacity=".1" fill="#84b012"/>
        <path class="cls-2" d="M6.11 2.31C5 3.57 2.85 4 2.59 1.94c0-.77 1.12-.54 1.89-1.06 1.29-.77 2-1 2.27.24.03.48-.3.79-.64 1.19zM1.75 13.65a7.1 7.1 0 0 0 2.36 1.1.76.76 0 0 1-.05 1.48 1.46 1.46 0 0 1-.59 0 .93.93 0 0 1-.2-.1 3.65 3.65 0 0 0-2.36-.8c-.5.07-.46-.57-.35-1.18a.7.7 0 0 1 .08-.2.76.76 0 0 1 1.11-.3z"/>
        <path class="cls-2" d="M14.18 10c0 1.3-2.77 7.34-7 5.37C4.66 11.41.44 13 .25 10 .25 1.73 3 6.74 6.56 3.53 12.65-2 14.18 6.35 14.18 10z"/>
        <rect x="5.97" y="6.69" width="3.27" height="3.27" rx=".41" fill="#84b012"/>
    </g>
</svg>
