<svg xmlns="http://www.w3.org/2000/svg" viewBox="0 0 132 117.54" width='128' height='128'>
    <defs>
        <style>
        .cls-1 {
        }

        .cls-2, .cls-4 {
            fill: none;
            stroke: #ffffff;
            stroke-miterlimit: 10;
        }

        .cls-2 {
            stroke-width: 4px;
        }

        .cls-2, .cls-3, .cls-4 {
            fill-rule: evenodd;
        }

        .cls-3 {
            fill: #ffffff;
        }

        .cls-4 {
            stroke-width: 8px;
        }
        </style>
    </defs>
    <title>metal</title>
    <g>
        <g class="cls-1">
            <path class="cls-2" d="M47.71,22.32a5.37,5.37,0,0,1-2.33-9.21,1.36,1.36,0,0,0,.15-1.84,24.2,24.2,0,0,0-3.87-3.9,1.34,1.34,0,0,0-1.85.15,5.62,5.62,0,0,1-6.09,1.36,5.41,5.41,0,0,1-3.29-5.29,1.36,1.36,0,0,0-1.2-1.43,24.58,24.58,0,0,0-5.49,0,1.35,1.35,0,0,0-1.2,1.39A5.42,5.42,0,0,1,19.2,8.75a5.64,5.64,0,0,1-6-1.38,1.36,1.36,0,0,0-1.84-.15,24.29,24.29,0,0,0-3.95,3.9A1.35,1.35,0,0,0,7.52,13a5.43,5.43,0,0,1,1.36,6.09,5.63,5.63,0,0,1-5.31,3.3,1.33,1.33,0,0,0-1.41,1.2,25,25,0,0,0,0,5.54,1.62,1.62,0,0,0,1.6,1.2,5.35,5.35,0,0,1,5,3.34,5.44,5.44,0,0,1-1.36,6,1.35,1.35,0,0,0-.15,1.83,23.8,23.8,0,0,0,3.86,3.91A1.34,1.34,0,0,0,13,45.27a5.64,5.64,0,0,1,6.09-1.37,5.4,5.4,0,0,1,3.3,4.87"/>
        </g>
        <g class="cls-1">
            <path class="cls-2" d="M130,84.38a.54.54,0,0,0-.53-.4,1.81,1.81,0,0,1-1.23-3.15.46.46,0,0,0,.05-.61,8.06,8.06,0,0,0-1.3-1.31.45.45,0,0,0-.62,0,1.89,1.89,0,0,1-2,.46,1.82,1.82,0,0,1-1.11-1.78.46.46,0,0,0-.4-.48,8.09,8.09,0,0,0-1.84,0,.45.45,0,0,0-.41.47,1.81,1.81,0,0,1-1.12,1.74,1.88,1.88,0,0,1-2-.46.45.45,0,0,0-.62,0,7.85,7.85,0,0,0-1.33,1.31.45.45,0,0,0,0,.62,1.8,1.8,0,0,1,.46,2,1.9,1.9,0,0,1-1.78,1.11.43.43,0,0,0-.47.4,7.71,7.71,0,0,0,0,1.86.55.55,0,0,0,.54.4,1.79,1.79,0,0,1,1.68,1.12,1.82,1.82,0,0,1-.45,2,.45.45,0,0,0,0,.62,7.93,7.93,0,0,0,1.29,1.3.45.45,0,0,0,.62,0,1.86,1.86,0,0,1,2-.46,1.81,1.81,0,0,1,1.11,1.77.46.46,0,0,0,.4.48,7.57,7.57,0,0,0,1,.06,8.85,8.85,0,0,0,.89,0,.46.46,0,0,0,.41-.47,1.82,1.82,0,0,1,1.12-1.75,1.91,1.91,0,0,1,2,.46.44.44,0,0,0,.61,0,8.18,8.18,0,0,0,1.33-1.3.46.46,0,0,0,0-.63,1.8,1.8,0,0,1-.46-2,1.84,1.84,0,0,1,1.67-1.11h.11a.48.48,0,0,0,.48-.41A8.26,8.26,0,0,0,130,84.38Z"/>
        </g>
        <g>
            <path class="cls-4" d="M115.87,54.77c-.16-1.49-1.9-2.61-3.4-2.61a11.68,11.68,0,0,1-8-20.33,2.94,2.94,0,0,0,.32-4,52.41,52.41,0,0,0-8.38-8.46,2.94,2.94,0,0,0-4,.33,12.2,12.2,0,0,1-13.2,3,11.76,11.76,0,0,1-7.14-11.49,2.94,2.94,0,0,0-2.6-3.09,53.2,53.2,0,0,0-11.9,0,3,3,0,0,0-2.62,3A11.78,11.78,0,0,1,47.7,22.38a12.23,12.23,0,0,1-13.1-3,2.94,2.94,0,0,0-4-.33,52.7,52.7,0,0,0-8.56,8.46,3,3,0,0,0,.32,4,11.73,11.73,0,0,1,3,13.2,12.24,12.24,0,0,1-11.52,7.15,2.87,2.87,0,0,0-3.05,2.6,52.6,52.6,0,0,0,0,12c.16,1.49,1.95,2.6,3.47,2.6a11.6,11.6,0,0,1,10.88,7.25,11.76,11.76,0,0,1-3,13.08,3,3,0,0,0-.32,4,52.33,52.33,0,0,0,8.37,8.46,2.94,2.94,0,0,0,4-.32,12.16,12.16,0,0,1,13.18-3,11.72,11.72,0,0,1,7.16,11.48,2.94,2.94,0,0,0,2.6,3.09,53,53,0,0,0,11.9,0,3,3,0,0,0,2.62-3,11.75,11.75,0,0,1,7.24-11.28,12.2,12.2,0,0,1,13.1,3,3,3,0,0,0,4,.34,53.16,53.16,0,0,0,8.56-8.47,2.94,2.94,0,0,0-.32-4,11.72,11.72,0,0,1-3-13.19,11.84,11.84,0,0,1,10.82-7.17h.65a2.93,2.93,0,0,0,3.1-2.59A52.6,52.6,0,0,0,115.87,54.77Z"/>
        </g>
    </g>
</svg>
