<svg xmlns="http://www.w3.org/2000/svg" viewBox="0 0 16.44 14.38" width="256" height="256">
    <defs>
        <style>
            .cls-3{fill-rule:evenodd;fill:none;stroke:#956f5c;stroke-miterlimit:10;stroke-width:.44px}
        </style>
    </defs>
    <g>
        <path d="M14.45 6.81a.43.43 0 0 0-.45-.32A1.46 1.46 0 0 1 13 4a.37.37 0 0 0 0-.5 6.2 6.2 0 0 0-1-1.11.37.37 0 0 0-.5 0 1.52 1.52 0 0 1-1.65.37A1.45 1.45 0 0 1 9 1.37.37.37 0 0 0 8.65 1a6.19 6.19 0 0 0-1.49 0 .35.35 0 0 0-.32.37 1.47 1.47 0 0 1-.91 1.41 1.52 1.52 0 0 1-1.64-.37.37.37 0 0 0-.5 0 7.15 7.15 0 0 0-1.07 1 .37.37 0 0 0 0 .5 1.47 1.47 0 0 1 .37 1.65 1.52 1.52 0 0 1-1.44.89.38.38 0 0 0-.38.33 6.27 6.27 0 0 0 0 1.5.43.43 0 0 0 .43.33 1.46 1.46 0 0 1 1 2.54.37.37 0 0 0 0 .5 7 7 0 0 0 1.05 1.06.37.37 0 0 0 .5 0 1.52 1.52 0 0 1 1.65-.37 1.46 1.46 0 0 1 .9 1.43.37.37 0 0 0 .32.39 6.45 6.45 0 0 0 .76 0 5.85 5.85 0 0 0 .73 0 .38.38 0 0 0 .33-.38 1.46 1.46 0 0 1 .9-1.41 1.53 1.53 0 0 1 1.64.37.37.37 0 0 0 .5.05 7.15 7.15 0 0 0 1.02-1.1.37.37 0 0 0 0-.5 1.46 1.46 0 0 1 1-2.55h.08a.36.36 0 0 0 .39-.32 6.36 6.36 0 0 0-.02-1.51z" fill-rule="evenodd" fill="#956f5c" opacity=".1"/>
        <path class="cls-3" d="M14.45 6.81a.43.43 0 0 0-.45-.32A1.46 1.46 0 0 1 13 4a.37.37 0 0 0 0-.5 6.2 6.2 0 0 0-1-1.11.37.37 0 0 0-.5 0 1.52 1.52 0 0 1-1.65.37A1.45 1.45 0 0 1 9 1.37.37.37 0 0 0 8.65 1a6.19 6.19 0 0 0-1.49 0 .35.35 0 0 0-.32.37 1.47 1.47 0 0 1-.91 1.41 1.52 1.52 0 0 1-1.64-.37.37.37 0 0 0-.5 0 7.15 7.15 0 0 0-1.07 1 .37.37 0 0 0 0 .5 1.47 1.47 0 0 1 .37 1.65 1.52 1.52 0 0 1-1.44.89.38.38 0 0 0-.38.33 6.27 6.27 0 0 0 0 1.5.43.43 0 0 0 .43.33 1.46 1.46 0 0 1 1 2.54.37.37 0 0 0 0 .5 7 7 0 0 0 1.05 1.06.37.37 0 0 0 .5 0 1.52 1.52 0 0 1 1.65-.37 1.46 1.46 0 0 1 .9 1.43.37.37 0 0 0 .32.39 6.45 6.45 0 0 0 .76 0 5.85 5.85 0 0 0 .73 0 .38.38 0 0 0 .33-.38 1.46 1.46 0 0 1 .9-1.41 1.53 1.53 0 0 1 1.64.37.37.37 0 0 0 .5.05 7.15 7.15 0 0 0 1.02-1.1.37.37 0 0 0 0-.5 1.46 1.46 0 0 1 1-2.55h.08a.36.36 0 0 0 .39-.32 6.36 6.36 0 0 0-.02-1.51z"/>
        <path class="cls-3" d="M5.93 2.76a.67.67 0 0 1-.29-1.15.17.17 0 0 0 0-.23 2.79 2.79 0 0 0-.46-.49.17.17 0 0 0-.24 0 .71.71 0 0 1-.76.17.69.69 0 0 1-.41-.64.17.17 0 0 0-.15-.18 2.58 2.58 0 0 0-.68 0 .17.17 0 0 0-.16.17.68.68 0 0 1-.41.65.71.71 0 0 1-.76-.17.17.17 0 0 0-.23 0 2.84 2.84 0 0 0-.49.49.16.16 0 0 0 0 .23.68.68 0 0 1 .17.76.72.72 0 0 1-.67.41.16.16 0 0 0-.17.15 2.73 2.73 0 0 0 0 .7.21.21 0 0 0 .2.15.65.65 0 0 1 .62.41.68.68 0 0 1-.17.76.17.17 0 0 0 0 .23 3.17 3.17 0 0 0 .48.49.18.18 0 0 0 .23 0 .7.7 0 0 1 .76-.17.65.65 0 0 1 .41.6" opacity='.6'/>
        <path class="cls-3" d="M16.21 10.52h-.06a.25.25 0 0 1-.22-.14.25.25 0 0 1 .06-.26L16 10a1.33 1.33 0 0 0-.16-.17.06.06 0 0 0-.08 0 .23.23 0 0 1-.26.05.22.22 0 0 1-.14-.22V9.6h-.23a.06.06 0 0 0-.05.06.22.22 0 0 1-.14.22.24.24 0 0 1-.25-.06.06.06 0 0 0-.08 0 .81.81 0 0 0-.16.16.06.06 0 0 0 0 .08.21.21 0 0 1 .06.25.22.22 0 0 1-.22.14.06.06 0 0 0-.06 0 .88.88 0 0 0 0 .23h.07a.26.26 0 0 1 .21.14.25.25 0 0 1-.06.26v.07a1.29 1.29 0 0 0 .16.17.06.06 0 0 0 .08 0 .25.25 0 0 1 .26-.06.24.24 0 0 1 .14.23s0 .05.05.06h.23a.06.06 0 0 0 0-.06.22.22 0 0 1 .39-.16.06.06 0 0 0 .08 0 .81.81 0 0 0 .16-.16.06.06 0 0 0 0-.08.22.22 0 0 1 .15-.39.06.06 0 0 0 .06-.05.88.88 0 0 0 0-.13z" opacity='.6'/>
        <rect x="6.24" y="5.91" width="3.27" height="3.27" rx=".41" fill="#956f5c"/>
    </g>
</svg>
