<svg xmlns="http://www.w3.org/2000/svg" viewBox="0 0 132 117.54" width='128' height='128'>
    <defs>
        <style>
        .cls-1 {
        }

        .cls-2, .cls-4 {
            fill: none;
            stroke: #ffffff;
            stroke-miterlimit: 10;
        }

        .cls-2 {
            stroke-width: 4px;
        }

        .cls-2, .cls-3, .cls-4 {
            fill-rule: evenodd;
        }

        .cls-3 {
            fill: #ffffff;
        }

        .cls-4 {
            stroke-width: 8px;
        }
        </style>
    </defs>
    <title>metal</title>
    <g>
        <g class="cls-1">
            <path class="cls-3" d="M115.87,54.77c-.16-1.49-1.9-2.61-3.4-2.61a11.68,11.68,0,0,1-8-20.33,2.94,2.94,0,0,0,.32-4,52.41,52.41,0,0,0-8.38-8.46,2.94,2.94,0,0,0-4,.33,12.2,12.2,0,0,1-13.2,3,11.76,11.76,0,0,1-7.14-11.49,2.94,2.94,0,0,0-2.6-3.09,53.2,53.2,0,0,0-11.9,0,3,3,0,0,0-2.62,3A11.78,11.78,0,0,1,47.7,22.38a12.23,12.23,0,0,1-13.1-3,2.94,2.94,0,0,0-4-.33,52.7,52.7,0,0,0-8.56,8.46,3,3,0,0,0,.32,4,11.73,11.73,0,0,1,3,13.2,12.24,12.24,0,0,1-11.52,7.15,2.87,2.87,0,0,0-3.05,2.6,52.6,52.6,0,0,0,0,12c.16,1.49,1.95,2.6,3.47,2.6a11.6,11.6,0,0,1,10.88,7.25,11.76,11.76,0,0,1-3,13.08,3,3,0,0,0-.32,4,52.33,52.33,0,0,0,8.37,8.46,2.94,2.94,0,0,0,4-.32,12.16,12.16,0,0,1,13.18-3,11.72,11.72,0,0,1,7.16,11.48,2.94,2.94,0,0,0,2.6,3.09,53,53,0,0,0,11.9,0,3,3,0,0,0,2.62-3,11.75,11.75,0,0,1,7.24-11.28,12.2,12.2,0,0,1,13.1,3,3,3,0,0,0,4,.34,53.16,53.16,0,0,0,8.56-8.47,2.94,2.94,0,0,0-.32-4,11.72,11.72,0,0,1-3-13.19,11.84,11.84,0,0,1,10.82-7.17h.65a2.93,2.93,0,0,0,3.1-2.59A52.6,52.6,0,0,0,115.87,54.77Z"/>
        </g>
    </g>
</svg>
