<svg xmlns="http://www.w3.org/2000/svg" viewBox="0 0 119.43 132" width='128' height='128'>
    <defs>
        <style>
        .cls-1 {
            fill: #ffffff;
        }

        .cls-2, .cls-3 {
            fill: none;
            stroke: #ffffff;
            stroke-miterlimit: 10;
        }

        .cls-2 {
            stroke-width: 4px;
        }

        .cls-3 {
            stroke-width: 8px;
        }
        </style>
    </defs>
    <title>biomass</title>
    <g>
        <path class="cls-2" d="M50.85,18.44c-9,10.11-26.07,13.51-28.13-2.93,0-6.17,9-4.32,15.13-8.43C48.13.91,53.56-.94,56,9,56.24,12.79,53.57,15.3,50.85,18.44Z"/>
        <path class="cls-2" d="M16,109.17A56.14,56.14,0,0,0,34.89,118c6.22,1.55,5.88,10.67-.43,11.78a10.42,10.42,0,0,1-4.68-.16,5.45,5.45,0,0,1-1.58-.79c-5.74-3.93-10.48-6.46-18.88-6.36-4.07.57-3.72-4.57-2.8-9.44a5.88,5.88,0,0,1,.56-1.62l.06-.11A6.06,6.06,0,0,1,16,109.17Z"/>
        <path class="cls-3" d="M115.43,79.57c0,10.44-22.16,58.73-55.72,43-20.4-31.26-54.2-19-55.71-43C4,13.82,26.14,54,54.5,28.21,103.23-16,115.43,50.77,115.43,79.57Z"/>
    </g>
</svg>
