<svg xmlns="http://www.w3.org/2000/svg" viewBox="0 0 32.73 32.73"><defs><style>.cls-1,.cls-3{fill:none;}.cls-2{fill:#f4e383;}.cls-3{stroke:#cc3d3e;stroke-linecap:round;stroke-linejoin:round;stroke-width:1.5px;}</style></defs><title>disable-tower</title><g id="Слой_2" data-name="Слой 2"><g id="Слой_1-2" data-name="Слой 1"><circle class="cls-1" cx="16.37" cy="16.37" r="16.37"/><rect class="cls-2" x="13.01" y="15.79" width="11.96" height="1.93" rx="0.96" ry="0.96"/><rect class="cls-2" x="7.76" y="14.48" width="3.53" height="4.55" rx="0.93" ry="0.93"/><polygon class="cls-2" points="8.63 10.61 12.01 5.42 12.43 10.61 19.24 8.26 14.84 11.76 18.52 12.42 13.94 14.17 15.32 12.78 12.43 12.6 14.42 10.91 11.22 12.3 10.86 9.16 8.63 10.61"/><polygon class="cls-2" points="9.52 21.14 11.31 25.44 11.37 21.34 14.95 24.58 13.8 21.86 17.53 22.47 15.16 20.41 15.5 21.58 12.9 20.75 12.99 21.56 10.78 20.07 10.59 21.58 9.52 21.14"/><line class="cls-3" x1="21.24" y1="11.49" x2="11.49" y2="21.24"/><line class="cls-3" x1="11.49" y1="11.49" x2="21.24" y2="21.24"/></g></g></svg>