<svg xmlns="http://www.w3.org/2000/svg" viewBox="0 0 32.73 32.73"><defs><style>.cls-1,.cls-2,.cls-4{fill:none;}.cls-2{stroke:#f4e383;stroke-width:1.2px;}.cls-2,.cls-4{stroke-linecap:round;stroke-linejoin:round;}.cls-3{fill:#f4e383;}.cls-4{stroke:#cc3d3e;stroke-width:1.5px;}</style></defs><title>disable-terminal</title><g id="Слой_2" data-name="Слой 2"><g id="Слой_1-2" data-name="Слой 1"><circle class="cls-1" cx="16.37" cy="16.37" r="16.37"/><path class="cls-2" d="M16.37,7.29h0a3.87,3.87,0,0,1,3.87,3.87v6.62a.37.37,0,0,1-.37.37h-7a.37.37,0,0,1-.37-.37V11.16a3.87,3.87,0,0,1,3.87-3.87Z"/><line class="cls-2" x1="13.8" y1="20.18" x2="13.8" y2="23.39"/><line class="cls-2" x1="16.37" y1="20.18" x2="16.37" y2="25.44"/><line class="cls-2" x1="18.93" y1="20.18" x2="18.93" y2="23.39"/><line class="cls-2" x1="16.37" y1="10.98" x2="16.37" y2="18.15"/><rect class="cls-3" x="12.5" y="15.98" width="7.74" height="1.8"/><line class="cls-4" x1="22.64" y1="10.09" x2="10.09" y2="22.64"/><line class="cls-4" x1="10.09" y1="10.09" x2="22.64" y2="22.64"/></g></g></svg>