<svg xmlns="http://www.w3.org/2000/svg" viewBox="0 0 32.73 32.73"><defs><style>.cls-1{fill:none;}.cls-2{fill:#f4e383;}.cls-3{fill:#cc3d3e;}</style></defs><title>encourage</title><g id="Слой_2" data-name="Слой 2"><g id="Слой_1-2" data-name="Слой 1"><circle class="cls-1" cx="16.37" cy="16.37" r="16.37" transform="translate(-6.78 16.37) rotate(-45)"/><path class="cls-2" d="M18.15,21.08c1,.34,1.85.55,3.09.93C20.76,28,15.05,25.65,18.15,21.08Z"/><path class="cls-2" d="M23.4,15.05c-.06-1.81-.38-4.19-2.93-3.82-1.19.31-2.07,1.62-2.49,3.88a10.85,10.85,0,0,0,.17,4c.25.74.16.69.43.83,1,.23,2,.48,3.06.74C22.68,20,23.54,16.07,23.4,15.05Z"/><path class="cls-2" d="M14.57,15.07a10.86,10.86,0,0,0,.17-4c-.41-2.26-1.29-3.57-2.49-3.88C9.72,6.78,9.4,9.16,9.33,11c-.14,1,.72,4.93,1.76,5.67,1-.26,2-.51,3.06-.74C14.41,15.76,14.33,15.8,14.57,15.07Z"/><path class="cls-3" d="M11.44,17.78c.48,6,6.19,3.64,3.09-.93C13.55,17.18,12.68,17.39,11.44,17.78Z"/></g></g></svg>