<svg xmlns="http://www.w3.org/2000/svg" viewBox="0 0 20.25 27.57" width="128" height="128">
    <defs>
        <style>.cls-1{fill:#ffffff;}.cls-2{fill:#1d1d1d;}</style>
    </defs>
    <title>executor-lvl3</title>
    <g id="Слой_2" data-name="Слой 2">
        <g id="Слой_1-2" data-name="Слой 1">
            <path class="cls-1"
                  d="M7.35,24.8c0-1.28,1.5-6,2.77-6s2.77,4.73,2.77,6a3.18,3.18,0,0,1-2.77,2.77A3.18,3.18,0,0,1,7.35,24.8Z"/>
            <path class="cls-1"
                  d="M12.1,17.88s3.48.74,4.11-2.61C17.11,10.54,11.94,0,11.94,0s4.31,9.45,3.48,14.26A5,5,0,0,1,12.1,17.88Z"/>
            <path class="cls-1"
                  d="M8.15,17.88S4.67,18.63,4,15.27C3.14,10.54,8.31,0,8.31,0S4,9.45,4.84,14.26A5,5,0,0,0,8.15,17.88Z"/>
            <polygon class="cls-2" points="18.05 15.67 20.25 13.76 18.05 12.37 18.05 15.67"/>
            <path class="cls-2"
                  d="M18.08,12.42c-.29-2.72-3-6.62-3-6.62s2,4.82,2,8A5.83,5.83,0,0,1,16.37,17a6,6,0,0,1-.12,4.17,10.73,10.73,0,0,0,.5-1,24.15,24.15,0,0,0,1.39-5.08A17.29,17.29,0,0,0,18.08,12.42Z"/>
            <path class="cls-2"
                  d="M12.59.3c.95,1.77,2.44,5.38,2.48,5.5s.72,1.11,1.31,2.15A15.35,15.35,0,0,1,18,11.68a29.69,29.69,0,0,0-1.7-5.45A38.69,38.69,0,0,0,12.59.3Z"/>
            <circle class="cls-2" cx="10.13" cy="12.55" r="4.43"/>
            <path d="M10.13,8.37A4.17,4.17,0,1,1,6,12.55a4.18,4.18,0,0,1,4.17-4.17m0-.5a4.67,4.67,0,1,0,4.67,4.67,4.67,4.67,0,0,0-4.67-4.67Z"/>
            <path class="cls-1"
                  d="M16.37,17c-1.56,2.55-5.17,1.36-5.17,1.36A11.79,11.79,0,0,1,13,20.64,33.39,33.39,0,0,1,14,24.8s1.43-2.16,2.28-3.66C16.46,20.76,17,18.31,16.37,17Z"/>
            <polygon class="cls-2" points="2.2 15.67 0 13.76 2.2 12.37 2.2 15.67"/>
            <path class="cls-2"
                  d="M2.17,12.42c.29-2.72,3-6.62,3-6.62s-2,4.82-2,8A5.83,5.83,0,0,0,3.88,17,6,6,0,0,0,4,21.14a10.73,10.73,0,0,1-.5-1,24.15,24.15,0,0,1-1.39-5.08A17.29,17.29,0,0,1,2.17,12.42Z"/>
            <path class="cls-2"
                  d="M7.66.3C6.72,2.07,5.22,5.68,5.19,5.8S4.47,6.9,3.88,7.95A15.35,15.35,0,0,0,2.3,11.68,29.69,29.69,0,0,1,4,6.23,38.69,38.69,0,0,1,7.66.3Z"/>
            <path class="cls-1"
                  d="M3.88,17c1.56,2.55,5.17,1.36,5.17,1.36A11.79,11.79,0,0,0,7.2,20.64a33.39,33.39,0,0,0-.92,4.16S4.85,22.64,4,21.14C3.79,20.76,3.21,18.31,3.88,17Z"/>
        </g>
    </g>
</svg>