<svg xmlns="http://www.w3.org/2000/svg" viewBox="0 0 32.73 32.73"><defs><style>.cls-1,.cls-2,.cls-3{fill:none;}.cls-2{stroke:#cc3d3e;}.cls-2,.cls-3{stroke-linecap:round;stroke-linejoin:round;stroke-width:0.75px;}.cls-3{stroke:#f4e383;}</style></defs><title>exhaust</title><g id="Слой_2" data-name="Слой 2"><g id="Слой_1-2" data-name="Слой 1"><circle class="cls-1" cx="16.37" cy="16.37" r="16.37" transform="translate(-6.78 16.37) rotate(-45)"/><path class="cls-2" d="M12.88,20c.9-.06,1.64-1,2-2.31a.43.43,0,0,0-.45-.55l-3.55.23a.43.43,0,0,0-.37.6C11.11,19.23,12,20,12.88,20Z"/><path class="cls-3" d="M14.69,15.53a.86.86,0,0,0,.8-.86,18.21,18.21,0,0,1,.19-2.36c.27-2-.22-4.6-2.67-4.73-3-.16-3.52,3.63-3.38,5.85a10.39,10.39,0,0,0,.26,1.71.86.86,0,0,0,.89.65Z"/><path class="cls-3" d="M21.82,22.52l-3.55-.23a.43.43,0,0,0-.45.55c.39,1.34,1.13,2.26,2,2.31s1.75-.75,2.33-2A.44.44,0,0,0,21.82,22.52Z"/><path class="cls-3" d="M19.73,12.75c-2.46.13-2.94,2.76-2.67,4.73a21.44,21.44,0,0,1,.19,2.36.86.86,0,0,0,.8.86l3.89.26a.86.86,0,0,0,.89-.65,9.06,9.06,0,0,0,.26-1.71C23.25,16.39,22.73,12.6,19.73,12.75Z"/></g></g></svg>