<svg xmlns="http://www.w3.org/2000/svg" viewBox="0 0 32.73 32.73"><defs><style>.cls-1,.cls-3,.cls-4{fill:none;}.cls-2{fill:#f4e383;}.cls-3{stroke:#cc3d3e;}.cls-3,.cls-4{stroke-linecap:round;stroke-linejoin:round;}.cls-4{stroke:#f4e383;stroke-width:0.5px;}</style></defs><title>extend-source</title><g id="Слой_2" data-name="Слой 2"><g id="Слой_1-2" data-name="Слой 1"><circle class="cls-1" cx="16.37" cy="16.37" r="16.37"/><rect class="cls-2" x="12.68" y="12.68" width="7.37" height="7.37" rx="0.47" ry="0.47"/><line class="cls-3" x1="23.21" y1="16.43" x2="27.12" y2="16.43"/><polyline class="cls-3" points="24.92 14.39 27.41 16.43 24.92 18.47"/><line class="cls-3" x1="9.52" y1="16.49" x2="5.61" y2="16.49"/><polyline class="cls-3" points="7.81 14.45 5.32 16.49 7.81 18.53"/><path class="cls-4" d="M12.68,9.3H9.77a.47.47,0,0,0-.47.47v2.91"/><path class="cls-4" d="M20,23.43H23a.47.47,0,0,0,.47-.47V20"/><path class="cls-4" d="M23.43,12.68V9.77A.47.47,0,0,0,23,9.3H20"/><path class="cls-4" d="M9.3,20V23a.47.47,0,0,0,.47.47h2.91"/></g></g></svg>