<svg xmlns="http://www.w3.org/2000/svg" viewBox="0 0 41.2 41.2" width="200" height="200" version="1.1" >
    <g transform="translate(1,1)">
        <path d="M12.85 1.25l-2.174 6.83a14.58 14.58 0 0 0-2.56 2.565L1.288 12.82l-.039 1.89 4.227 1.345A14.58 14.58 0 0 0 5.02 19.6a14.58 14.58 0 0 0 .45 3.539L1.29 24.47l-.04 1.888 6.832 2.168a14.58 14.58 0 0 0 2.563 2.557l2.175 6.826 1.89.04 1.345-4.225a14.58 14.58 0 0 0 3.545.455 14.58 14.58 0 0 0 3.539-.45l1.332 4.18 1.888.04 2.168-6.83a14.58 14.58 0 0 0 2.557-2.565l6.826-2.174.04-1.89-4.227-1.346a14.58 14.58 0 0 0 .457-3.545 14.58 14.58 0 0 0-.45-3.534l4.18-1.326.04-1.89-6.829-2.174a14.58 14.58 0 0 0-2.566-2.559L26.38 1.29l-1.89-.039-1.346 4.227A14.58 14.58 0 0 0 19.6 5.02a14.58 14.58 0 0 0-3.534.449l-1.326-4.18-1.89-.039z"
            stroke-width="4" stroke-miterlimit="4" stroke-dasharray="none" stroke="#fdffff" stroke-opacity="1" fill="none" stroke-linejoin="round"/>
    </g>
</svg>
