<?xml version="1.0" encoding="UTF-8" standalone="no"?>
<svg
   xmlns:dc="http://purl.org/dc/elements/1.1/"
   xmlns:cc="http://creativecommons.org/ns#"
   xmlns:rdf="http://www.w3.org/1999/02/22-rdf-syntax-ns#"
   xmlns:svg="http://www.w3.org/2000/svg"
   xmlns="http://www.w3.org/2000/svg"
   xmlns:sodipodi="http://sodipodi.sourceforge.net/DTD/sodipodi-0.dtd"
   xmlns:inkscape="http://www.inkscape.org/namespaces/inkscape"
   viewBox="0 0 39.2 39.2"
   width="256"
   height="256"
   version="1.1"
   id="svg6598"
   sodipodi:docname="factory-highlight.svg"
   inkscape:version="0.92.3 (2405546, 2018-03-11)">
  <metadata
     id="metadata6602">
    <rdf:RDF>
      <cc:Work
         rdf:about="">
        <dc:format>image/svg+xml</dc:format>
        <dc:type
           rdf:resource="http://purl.org/dc/dcmitype/StillImage" />
      </cc:Work>
    </rdf:RDF>
  </metadata>
  <sodipodi:namedview
     pagecolor="#ffffff"
     bordercolor="#666666"
     borderopacity="1"
     objecttolerance="10"
     gridtolerance="10"
     guidetolerance="10"
     inkscape:pageopacity="0"
     inkscape:pageshadow="2"
     inkscape:window-width="1593"
     inkscape:window-height="912"
     id="namedview6600"
     showgrid="false"
     inkscape:zoom="2.6074563"
     inkscape:cx="140.46313"
     inkscape:cy="124.08606"
     inkscape:window-x="0"
     inkscape:window-y="0"
     inkscape:window-maximized="0"
     inkscape:current-layer="Layer_2" />
  <defs
     id="defs6538">
    <style
       id="style6536">.cls-1,.cls-2{fill:#232323;}.cls-1{stroke:#c46865;stroke-width:2.5px;}.cls-1,.cls-2,.cls-3{stroke-linejoin:round;}.cls-2,.cls-3{stroke:#140a0a;stroke-width:1.17px;}.cls-3{fill:#6d6c6c;}.cls-4{fill:#140a0a;}.cls-5{fill:#fff;}.cls-6{fill:#4c7051;}.cls-7{fill:#fadf7e;}.cls-8,.cls-9{fill:none;stroke:#fff;stroke-miterlimit:10;stroke-width:2px;}.cls-9{opacity:0.2;}</style>
  </defs>
  <title
     id="title6540">factory</title>
  <g
     id="Layer_2"
     data-name="Layer 2">
    <g
       id="Layer_3"
       data-name="Layer 3">
      <path
         style="opacity:1;vector-effect:none;fill:#6d6c6c;fill-opacity:1;stroke:#6d6c6c;stroke-width:2.93;stroke-linecap:square;stroke-linejoin:miter;stroke-miterlimit:4;stroke-dasharray:none;stroke-dashoffset:0;stroke-opacity:1;paint-order:normal"
         d="m 201.81119,105.87227 c -2.29636,-7.657756 -5.96981,-15.956617 -9.69703,-21.907027 l -1.89097,-3.018891 1.54497,-4.939056 c 0.9806,-3.134848 1.73452,-4.939057 2.06387,-4.939057 0.44048,0 35.52287,11.056444 46.40267,14.624102 l 3.54752,1.163288 v 3.211788 3.211789 l -6.23213,1.97527 c -3.42767,1.086398 -12.69654,4.027703 -20.59749,6.536234 -7.90095,2.50853 -14.50763,4.56096 -14.68151,4.56096 -0.17388,0 -0.38083,-0.21573 -0.4599,-0.4794 z"
         id="path7396"
         inkscape:connector-curvature="0"
         transform="scale(0.153125)" />
      <path
         style="opacity:1;vector-effect:none;fill:#6d6c6c;fill-opacity:1;stroke:#6d6c6c;stroke-width:1.12370062;stroke-linecap:square;stroke-linejoin:miter;stroke-miterlimit:4;stroke-dasharray:none;stroke-dashoffset:0;stroke-opacity:1;paint-order:normal"
         d="M 69.832676,66.827162 C 69.718967,66.530843 73.496199,54.139985 78.226525,39.29192 l 8.600593,-26.99648 3.19222,0.107434 c 1.755721,0.05909 3.242493,0.157709 3.303939,0.219154 0.176525,0.176526 11.551063,36.097031 11.462193,36.197331 -0.0438,0.04947 -1.79504,0.599535 -3.89157,1.222369 -9.839459,2.923081 -19.489155,8.073315 -27.797954,14.83632 -2.190498,1.782967 -3.115105,2.335226 -3.26327,1.949114 z"
         id="path7409"
         inkscape:connector-curvature="0"
         transform="scale(0.153125)" />
      <path
         style="opacity:1;vector-effect:none;fill:#6d6c6c;fill-opacity:1;stroke:#6d6c6c;stroke-width:1.12370062;stroke-linecap:square;stroke-linejoin:miter;stroke-miterlimit:4;stroke-dasharray:none;stroke-dashoffset:0;stroke-opacity:1;paint-order:normal"
         d="M 29.397028,98.638064 12.330586,93.173175 v -3.11082 c 0,-1.71095 0.09226,-3.202717 0.205016,-3.315037 0.19876,-0.197986 49.522323,-15.965758 49.94289,-15.965758 0.25001,0 1.051419,2.210465 1.051419,2.900059 0,0.266479 -0.856268,1.509264 -1.902812,2.761744 -4.98135,5.961545 -10.77026,16.321078 -13.391526,23.964777 -0.705274,2.0566 -1.392519,3.72927 -1.52721,3.71704 -0.134692,-0.0122 -7.924792,-2.48143 -17.311335,-5.487116 z"
         id="path7419"
         inkscape:connector-curvature="0"
         transform="scale(0.153125)" />
      <path
         style="opacity:1;vector-effect:none;fill:#6d6c6c;fill-opacity:1;stroke:#6d6c6c;stroke-width:1.12370062;stroke-linecap:square;stroke-linejoin:miter;stroke-miterlimit:4;stroke-dasharray:none;stroke-dashoffset:0;stroke-opacity:1;paint-order:normal"
         d="m 78.18401,217.01059 c -4.686685,-14.72016 -8.520482,-27.05472 -8.519548,-27.41012 9.34e-4,-0.35541 0.169976,-1.08879 0.37565,-1.62976 l 0.373951,-0.98357 3.173567,2.56245 c 8.39246,6.77635 19.430747,12.46078 28.96499,14.91622 1.52927,0.39384 2.77903,0.80729 2.77724,0.91877 -0.002,0.11148 -2.72657,8.7455 -6.055083,19.18671 l -6.051839,18.98402 -3.258842,0.10961 -3.258842,0.10961 z"
         id="path7432"
         inkscape:connector-curvature="0"
         transform="scale(0.153125)" />
      <path
         style="opacity:1;vector-effect:none;fill:#6d6c6c;fill-opacity:1;stroke:#6d6c6c;stroke-width:1.12370062;stroke-linecap:square;stroke-linejoin:miter;stroke-miterlimit:4;stroke-dasharray:none;stroke-dashoffset:0;stroke-opacity:1;paint-order:normal"
         d="M 36.97146,177.10605 12.138828,169.2019 v -2.39631 c 0,-4.29512 -1.458049,-3.50814 17.985498,-9.70761 9.516832,-3.0344 17.35911,-5.44639 17.427283,-5.35998 0.06817,0.0864 0.601186,1.53775 1.184471,3.22522 2.369013,6.85365 7.866209,16.49614 12.954498,22.72317 l 2.324779,2.84506 -0.68696,2.26887 c -0.377828,1.24788 -0.875363,2.2556 -1.105634,2.23937 -0.23027,-0.0162 -11.593356,-3.58636 -25.251303,-7.93364 z"
         id="path7442"
         inkscape:connector-curvature="0"
         transform="scale(0.153125)" />
      <path
         style="opacity:1;vector-effect:none;fill:#6d6c6c;fill-opacity:1;stroke:#6d6c6c;stroke-width:1.12370062;stroke-linecap:square;stroke-linejoin:miter;stroke-miterlimit:4;stroke-dasharray:none;stroke-dashoffset:0;stroke-opacity:1;paint-order:normal"
         d="m 162.65524,243.26768 c -0.0996,-0.26367 -3.01012,-9.3616 -6.46777,-20.21761 l -6.28665,-19.73822 3.12405,-1.20787 c 9.92185,-3.83615 19.30252,-9.87789 27.57983,-17.76313 1.6384,-1.56079 3.04706,-2.7689 3.13035,-2.68467 0.0833,0.0842 0.70495,1.96524 1.38145,4.18004 l 1.23001,4.02692 -8.5488,26.94196 -8.54881,26.94197 h -3.20627 c -2.21274,0 -3.26239,-0.14855 -3.38739,-0.47939 z"
         id="path7455"
         inkscape:connector-curvature="0"
         transform="scale(0.153125)" />
      <path
         style="opacity:1;vector-effect:none;fill:#6d6c6c;fill-opacity:1;stroke:#6d6c6c;stroke-width:1.12370062;stroke-linecap:square;stroke-linejoin:miter;stroke-miterlimit:4;stroke-dasharray:none;stroke-dashoffset:0;stroke-opacity:1;paint-order:normal"
         d="m 191.51568,179.53035 -1.83424,-5.8223 1.87845,-2.85265 c 3.64212,-5.531 7.81067,-14.28695 9.30054,-19.53558 0.26943,-0.9492 0.52774,-1.78041 0.57401,-1.84714 0.0463,-0.0667 6.09866,1.79982 13.44976,4.14788 7.3511,2.34807 16.86042,5.38616 21.13183,6.75133 l 7.76619,2.48212 v 3.21425 3.21426 l -2.39698,0.78115 c -1.31833,0.42963 -12.49301,3.98839 -24.83263,7.90836 -12.33961,3.91997 -22.60824,7.18423 -22.81917,7.25392 -0.21094,0.0697 -1.20893,-2.49334 -2.21776,-5.6956 z"
         id="path7465"
         inkscape:connector-curvature="0"
         transform="scale(0.153125)" />
    </g>
    <path
       style="opacity:1;vector-effect:none;fill:#6d6c6c;fill-opacity:1;stroke:#6d6c6c;stroke-width:2.93;stroke-linecap:square;stroke-linejoin:miter;stroke-miterlimit:4;stroke-dasharray:none;stroke-dashoffset:0;stroke-opacity:1;paint-order:normal"
       d="m 181.07493,70.276295 c -7.52613,-7.62552 -17.80804,-14.379202 -27.7065,-18.199047 -1.52927,-0.59015 -2.7748,-1.175169 -2.76784,-1.300045 0.007,-0.124873 2.73849,-8.769854 6.07007,-19.211065 l 6.05743,-18.984019 3.28976,-0.110281 3.28977,-0.110281 0.97731,2.986648 c 0.53753,1.642656 4.18375,13.082694 8.10272,25.422306 3.91898,12.339613 7.35171,23.125988 7.6283,23.969722 0.46495,1.418302 0.41317,1.802251 -0.68625,5.08812 l -1.18915,3.554057 z"
       id="path7383"
       inkscape:connector-curvature="0"
       transform="scale(0.153125)" />
  </g>
</svg>
