<?xml version="1.0" encoding="UTF-8" standalone="no"?>
<svg
   xmlns:dc="http://purl.org/dc/elements/1.1/"
   xmlns:cc="http://creativecommons.org/ns#"
   xmlns:rdf="http://www.w3.org/1999/02/22-rdf-syntax-ns#"
   xmlns:svg="http://www.w3.org/2000/svg"
   xmlns="http://www.w3.org/2000/svg"
   xmlns:sodipodi="http://sodipodi.sourceforge.net/DTD/sodipodi-0.dtd"
   xmlns:inkscape="http://www.inkscape.org/namespaces/inkscape"
   viewBox="0 0 39.2 39.2"
   width="256"
   height="256"
   version="1.1"
   id="svg881"
   sodipodi:docname="factory-border.svg"
   inkscape:version="0.92.3 (2405546, 2018-03-11)">
  <metadata
     id="metadata885">
    <rdf:RDF>
      <cc:Work
         rdf:about="">
        <dc:format>image/svg+xml</dc:format>
        <dc:type
           rdf:resource="http://purl.org/dc/dcmitype/StillImage" />
      </cc:Work>
    </rdf:RDF>
  </metadata>
  <sodipodi:namedview
     pagecolor="#ffffff"
     bordercolor="#666666"
     borderopacity="1"
     objecttolerance="10"
     gridtolerance="10"
     guidetolerance="10"
     inkscape:pageopacity="0"
     inkscape:pageshadow="2"
     inkscape:window-width="1920"
     inkscape:window-height="1017"
     id="namedview883"
     showgrid="false"
     inkscape:zoom="3.3125"
     inkscape:cx="128"
     inkscape:cy="128"
     inkscape:window-x="-8"
     inkscape:window-y="-8"
     inkscape:window-maximized="1"
     inkscape:current-layer="Layer_3" />
  <defs
     id="defs853">
    <style
       id="style851">
            .cls-1,.cls-3{fill:#232323;stroke:#c46865;stroke-width:2.5px;stroke-linejoin:round}.cls-3{stroke:#140a0a;stroke-width:1.17px;fill:#6d6c6c}.cls-8,.cls-9{fill:none;stroke:#fff;stroke-miterlimit:10;stroke-width:2px}.cls-9{opacity:.2}
        </style>
  </defs>
  <g
     id="Layer_2"
     data-name="Layer 2">
    <g
       id="Layer_3"
       data-name="Layer 3">
      <path
         style="fill:none;stroke:#ffffff;stroke-width:16.32653046px;stroke-linejoin:round;stroke-opacity:0.90232557"
         d="M 83.917969 8.1640625 L 71.259766 47.929688 A 95.216326 95.216326 0 0 0 46.933594 71.453125 L 8.4238281 83.722656 L 8.1640625 96.064453 L 31.966797 103.64258 A 95.216326 95.216326 0 0 0 28.929688 127.01953 A 95.216326 95.216326 0 0 0 32.332031 152.1875 L 8.4238281 159.80469 L 8.1640625 172.14648 L 48.701172 185.00586 A 95.216326 95.216326 0 0 0 70.337891 205.57227 L 83.722656 247.57617 L 96.064453 247.83594 L 104.84961 220.24023 A 95.216326 95.216326 0 0 0 124.14648 222.23633 A 95.216326 95.216326 0 0 0 150.5293 218.46484 L 159.80469 247.57617 L 172.14648 247.83594 L 188.1543 197.37109 A 95.216326 95.216326 0 0 0 196.91992 188.41797 L 247.57617 172.27734 L 247.83594 159.93555 L 216.44336 149.94141 A 95.216326 95.216326 0 0 0 219.36328 127.01953 A 95.216326 95.216326 0 0 0 216.89258 106.00391 L 247.57617 96.261719 L 247.83594 83.917969 L 199.1543 68.421875 A 95.216326 95.216326 0 0 0 187.44141 56.017578 L 172.27734 8.4238281 L 159.93555 8.1640625 L 151.14844 35.765625 A 95.216326 95.216326 0 0 0 124.14648 31.804688 A 95.216326 95.216326 0 0 0 104.37891 33.994141 L 96.261719 8.4238281 L 83.917969 8.1640625 z "
         transform="scale(0.153125)"
         id="path855" />
      <!-- <circle cx="19.01" cy="19.45" r="12.29" fill="#140a0a"/> -->
      <!-- <rect x="15.65" y="15.63" width="7.51" height="7.51" rx=".56" fill="#fff"/> -->
      <!-- <path d="M15.65 20.09V22a1.12 1.12 0 0 0 1.13 1.12H22A1.12 1.12 0 0 0 23.16 22v-1.91z" fill="#4c7051"/> -->
      <!-- <path d="M15.65 21.62v.93a.59.59 0 0 0 .59.59h6.33a.58.58 0 0 0 .59-.59v-.93z" fill="#fadf7e"/> -->
      <!-- <path class="cls-9" d="M20.43,9.21a10.32,10.32,0,0,1,7.77,5.55"/> -->
      <!-- <path class="cls-9" d="M9.82,14.78A10.3,10.3,0,0,1,17.6,9.21"/> -->
      <!-- <path class="cls-9" d="M12,26.9a10.28,10.28,0,0,1-3.24-7.49,10.9,10.9,0,0,1,.16-1.82"/> -->
      <!-- <path class="cls-9" d="M23.72,28.56a10.28,10.28,0,0,1-9.41,0"/> -->
      <!-- <path class="cls-9" d="M29.15,17.65A10.3,10.3,0,0,1,26,26.92"/> -->
    </g>
  </g>
</svg>
