<svg xmlns="http://www.w3.org/2000/svg" viewBox="0 0 41.2 41.2" width="200" height="200" version="1.1">
    <defs>
        <style>
            .cls-8,.cls-9{fill:none;stroke:#fff;stroke-miterlimit:10;stroke-width:2px}.cls-9{opacity:.2}
        </style>
    </defs>
    <g transform="translate(1,1)">
        <circle cx="19.6" cy="19.6" r="12.29" fill="#140a0a"/>
        <path class="cls-9" d="M21 9.36a10.28 10.28 0 0 1 7.77 5.55"/>
        <path class="cls-9" d="M29.74 17.8a10.08 10.08 0 0 1 .15 1.75 10.26 10.26 0 0 1-3.26 7.52"/>
        <path class="cls-9" d="M24.31 28.71a10.38 10.38 0 0 1-9.42 0"/>
        <path class="cls-9" d="M12.55 27.05a10.29 10.29 0 0 1-3.24-7.5 10.78 10.78 0 0 1 .16-1.81"/>
        <path class="cls-9" d="M10.41 14.93a10.3 10.3 0 0 1 7.78-5.57"/>
    </g>
</svg>
