<?xml version="1.0" encoding="UTF-8" standalone="no"?>
<svg
   xmlns:dc="http://purl.org/dc/elements/1.1/"
   xmlns:cc="http://creativecommons.org/ns#"
   xmlns:rdf="http://www.w3.org/1999/02/22-rdf-syntax-ns#"
   xmlns:svg="http://www.w3.org/2000/svg"
   xmlns="http://www.w3.org/2000/svg"
   xmlns:sodipodi="http://sodipodi.sourceforge.net/DTD/sodipodi-0.dtd"
   xmlns:inkscape="http://www.inkscape.org/namespaces/inkscape"
   viewBox="0 0 39.2 39.2"
   width="256"
   height="256"
   version="1.1"
   id="svg954"
   sodipodi:docname="factory.svg"
   inkscape:version="0.92.3 (2405546, 2018-03-11)">
  <metadata
     id="metadata958">
    <rdf:RDF>
      <cc:Work
         rdf:about="">
        <dc:format>image/svg+xml</dc:format>
        <dc:type
           rdf:resource="http://purl.org/dc/dcmitype/StillImage" />
      </cc:Work>
    </rdf:RDF>
  </metadata>
  <sodipodi:namedview
     pagecolor="#ffffff"
     bordercolor="#666666"
     borderopacity="1"
     objecttolerance="10"
     gridtolerance="10"
     guidetolerance="10"
     inkscape:pageopacity="0"
     inkscape:pageshadow="2"
     inkscape:window-width="1525"
     inkscape:window-height="923"
     id="namedview956"
     showgrid="false"
     inkscape:zoom="1.84375"
     inkscape:cx="109.46953"
     inkscape:cy="114.73166"
     inkscape:window-x="170"
     inkscape:window-y="39"
     inkscape:window-maximized="0"
     inkscape:current-layer="Layer_3" />
  <defs
     id="defs926">
    <style
       id="style924">
            .cls-1,.cls-3{fill:#232323;stroke:#c46865;stroke-width:2.5px;stroke-linejoin:round}.cls-3{stroke:#140a0a;stroke-width:1.17px;fill:#6d6c6c}.cls-8,.cls-9{fill:none;stroke:#fff;stroke-miterlimit:10;stroke-width:2px}.cls-9{opacity:.2}
        </style>
  </defs>
  <g
     id="Layer_2"
     data-name="Layer 2">
    <g
       id="Layer_3"
       data-name="Layer 3">
      <circle
         cx="19.01"
         cy="19.45"
         r="14.58"
         id="circle940"
         stroke-linejoin="round"
         stroke-width="1.17"
         stroke="#140a0a"
         fill="#232323" />
      <path
         class="cls-3"
         d="M37.91 26.38l-8.85 2.82-11.84-3.77 11.84-3.77 8.89 2.83-.04 1.89z"
         id="path942"
         style="fill:#232323;fill-opacity:1" />
      <path
         class="cls-3"
         d="M1.29 24.47l8.85-2.82 11.84 3.77-11.84 3.76-8.89-2.82.04-1.89zM37.91 14.74l-8.85 2.81-11.84-3.77 11.84-3.76 8.89 2.83-.04 1.89z"
         id="path944"
         style="fill:#232323;fill-opacity:1" />
      <path
         class="cls-3"
         d="M1.29 12.82L10.14 10l11.84 3.77-11.84 3.77-8.89-2.83.04-1.89zM12.82 37.91L10 29.06l3.77-11.84 3.77 11.84-2.83 8.89-1.89-.04z"
         id="path946"
         style="fill:#232323;fill-opacity:1" />
      <path
         class="cls-3"
         d="M14.74 1.29l2.81 8.85-3.77 11.84-3.76-11.84 2.83-8.89 1.89.04zM24.47 37.91l-2.82-8.85 3.77-11.84 3.76 11.84-2.82 8.89-1.89-.04z"
         id="path948"
         style="fill:#232323;fill-opacity:1" />
      <path
         class="cls-3"
         d="M26.38 1.29l2.82 8.85-3.77 11.84-3.77-11.84 2.83-8.89 1.89.04z"
         id="path950"
         style="fill:#232323;fill-opacity:1" />
      <!-- <circle cx="19.01" cy="19.45" r="12.29" fill="#140a0a"/> -->
      <!-- <rect x="15.65" y="15.63" width="7.51" height="7.51" rx=".56" fill="#fff"/> -->
      <!-- <path d="M15.65 20.09V22a1.12 1.12 0 0 0 1.13 1.12H22A1.12 1.12 0 0 0 23.16 22v-1.91z" fill="#4c7051"/> -->
      <!-- <path d="M15.65 21.62v.93a.59.59 0 0 0 .59.59h6.33a.58.58 0 0 0 .59-.59v-.93z" fill="#fadf7e"/> -->
      <!-- <path class="cls-9" d="M20.43,9.21a10.32,10.32,0,0,1,7.77,5.55"/> -->
      <!-- <path class="cls-9" d="M9.82,14.78A10.3,10.3,0,0,1,17.6,9.21"/> -->
      <!-- <path class="cls-9" d="M12,26.9a10.28,10.28,0,0,1-3.24-7.49,10.9,10.9,0,0,1,.16-1.82"/> -->
      <!-- <path class="cls-9" d="M23.72,28.56a10.28,10.28,0,0,1-9.41,0"/> -->
      <!-- <path class="cls-9" d="M29.15,17.65A10.3,10.3,0,0,1,26,26.92"/> -->
      <path
         style="opacity:1;fill:#232323;fill-opacity:1;stroke:none;stroke-width:4.14492464;stroke-linejoin:round;stroke-miterlimit:4;stroke-dasharray:none;stroke-opacity:1;paint-order:normal"
         d="m 38.718644,101.64124 -26.439023,-8.481379 0.01006,-3.254237 0.01006,-3.254237 25.065309,-7.962525 c 13.78592,-4.379389 25.139923,-7.887911 25.231118,-7.796716 0.279202,0.279202 11.489419,35.786114 11.500386,36.425994 0.0095,0.55457 -7.176174,3.00829 -8.396513,2.86719 -0.298305,-0.0345 -12.439933,-3.87933 -26.981397,-8.54409 z"
         id="path5877"
         inkscape:connector-curvature="0"
         transform="scale(0.153125)" />
    </g>
  </g>
</svg>
