<svg xmlns="http://www.w3.org/2000/svg" viewBox="0 0 41.2 41.2" width="200" height="200" version="1.1">
    <g transform="translate(1,1)" fill="#ffffff" fill-opacity="1" stroke="#6d6c6c" stroke-width=".115" stroke-linecap="square" stroke-linejoin="round" stroke-miterlimit="4" stroke-dasharray="none" stroke-dashoffset="0" stroke-opacity="1" paint-order="normal">
        <path d="M4.821 15.22l-2.912-.933-.013-.52c-.007-.285-.001-.519.013-.519.02 0 7.091-2.244 7.568-2.402l.125-.041.18.563.178.563-.154.208c-.84 1.135-1.484 2.358-1.877 3.562-.082.252-.16.457-.172.454a750.03 750.03 0 0 1-2.936-.936z" opacity="1" vector-effect="none"/>
        <path d="M10.853 10.773a5.853 5.853 0 0 1-.122-.39l-.072-.259 1.311-4.123 1.31-4.124h1.018l.92 2.9c.505 1.596.927 2.922.936 2.947.008.026-.26.14-.596.255-1.505.511-3.23 1.55-4.321 2.603l-.334.322z" opacity="1" vector-effect="none"/>
        <path d="M28.004 10.608a12.588 12.588 0 0 0-4.484-2.676 7.685 7.685 0 0 1-.454-.163c-.009-.007.406-1.337.922-2.954l.937-2.941.508.013.51.013 1.312 4.114 1.312 4.114-.123.382c-.067.21-.126.38-.13.379a10.503 10.503 0 0 1-.31-.281z" opacity="1" vector-effect="none"/>
        <path d="M31.405 16.106l-.099-.315c-.333-1.07-1.012-2.403-1.729-3.392l-.324-.447.172-.536c.094-.295.193-.543.219-.552.026-.008 1.763.532 3.86 1.201l3.815 1.217v.488c0 .268-.013.5-.028.516-.016.015-1.305.433-2.866.929l-2.92.926c-.045.015-.09 0-.1-.035z" opacity="1" vector-effect="none"/>
        <path d="M29.417 27.814l-.175-.55.306-.426c.77-1.073 1.343-2.182 1.718-3.327a3.92 3.92 0 0 1 .156-.426c.015-.018 1.348.388 2.962.902l2.935.936.014.369a3.35 3.35 0 0 1-.012.51l-.027.142-3.801 1.21a272.61 272.61 0 0 1-3.851 1.21c-.028 0-.129-.247-.225-.55z" opacity="1" vector-effect="none"/>
        <path d="M24.907 37.314c0-.01-.416-1.325-.925-2.922a241.815 241.815 0 0 1-.924-2.936c0-.018.14-.08.312-.136a12.803 12.803 0 0 0 4.518-2.622l.416-.375.123.364.123.364-1.053 3.32c-.579 1.826-1.17 3.69-1.315 4.14l-.262.821h-.506c-.28 0-.507-.008-.507-.018z" opacity="1" vector-effect="none"/>
        <path d="M13.124 36.882c-.077-.248-.67-2.11-1.316-4.138l-1.175-3.686.124-.385.123-.386.392.368c1.195 1.123 2.802 2.071 4.445 2.625.247.083.442.163.433.178-.008.015-.29.89-.625 1.945-.335 1.055-.754 2.371-.932 2.924l-.322 1.005h-1.006z" opacity="1" vector-effect="none"/>
        <path d="M5.723 27.148l-3.814-1.212-.013-.511-.013-.511 2.94-.937c1.617-.516 2.946-.93 2.953-.921.007.008.1.276.208.593.212.629.707 1.694 1.048 2.257.172.285.544.831.87 1.28.043.058-.281 1.18-.339 1.177-.015-.002-1.743-.548-3.84-1.215z" opacity="1" vector-effect="none"/>
    </g>
</svg>
