<?xml version="1.0" encoding="UTF-8" standalone="no"?>
<svg
   xmlns:dc="http://purl.org/dc/elements/1.1/"
   xmlns:cc="http://creativecommons.org/ns#"
   xmlns:rdf="http://www.w3.org/1999/02/22-rdf-syntax-ns#"
   xmlns:svg="http://www.w3.org/2000/svg"
   xmlns="http://www.w3.org/2000/svg"
   version="1.1"
   id="svg4166"
   viewBox="0 0 200 200"
   height="200"
   width="200">
  <defs
     id="defs4168" />
  <metadata
     id="metadata4171">
    <rdf:RDF>
      <cc:Work
         rdf:about="">
        <dc:format>image/svg+xml</dc:format>
        <dc:type
           rdf:resource="http://purl.org/dc/dcmitype/StillImage" />
        <dc:title></dc:title>
      </cc:Work>
    </rdf:RDF>
  </metadata>
  <g
     transform="translate(0,-852.36216)"
     id="layer1">
    <g
       data-name="Слой 2"
       id="Слой_2"
       transform="translate(433.41143,788.63073)">
      <g
         data-name="Слой 1"
         id="Слой_1-2">
        <g
           transform="matrix(2.7877458,0,0,2.7877458,-1108.4526,-161.28787)"
           id="g4936">
          <circle
             style="fill:#735252;stroke:#390305;stroke-width:3px;stroke-linecap:round;stroke-miterlimit:10"
             id="circle12"
             r="33.66"
             cy="116.58857"
             cx="278.01715"
             class="cls-1" />
          <polygon
             style="fill:#390305"
             id="polygon14"
             points="18.19,29.48 14.88,22.37 14.88,22.37 9.29,43.7 27.79,60.65 29.09,51.87 "
             class="cls-2"
             transform="translate(242.85715,81.428577)" />
          <polygon
             style="fill:#390305"
             id="polygon16"
             points="52.14,40.84 55.44,47.96 55.44,47.96 61.04,26.63 42.54,9.68 41.23,18.46 "
             class="cls-2"
             transform="translate(242.85715,81.428577)" />
          <circle
             style="fill:#735252;stroke:#ff0d39;stroke-width:2px;stroke-linecap:round;stroke-miterlimit:10"
             id="circle18"
             transform="matrix(0.80083591,-0.59888384,0.59888384,0.80083591,0,0)"
             r="18.76"
             cy="259.86526"
             cx="152.84805"
             class="cls-3" />
          <path
             style="fill:#ff0d39"
             id="path20"
             d="m 296.67715,123.01858 1.9,-13.83 -2.65,-2.16 -2.65,-2.93 a 75.55,75.55 0 0 1 3.18,8.14 c 0.93,3.48 0.22,10.78 0.22,10.78 z"
             class="cls-4" />
          <circle
             style="fill:#735252;stroke:#390305;stroke-width:3px;stroke-linecap:round;stroke-miterlimit:10"
             id="circle22"
             r="16.309999"
             cy="116.57858"
             cx="277.98715"
             class="cls-1" />
          <path
             style="fill:#ff0d39"
             id="path30"
             d="m 259.35715,110.13858 -1.9,13.83 2.65,2.16 2.65,2.93"
             class="cls-4" />
          <path
             style="fill:#390305"
             id="path32"
             d="m 266.48715,135.47858 21.37,5.6 16.95,-18.5 -8.78,-1.3 c 0,0 -4.64,7.15 -6.9,8.72"
             class="cls-2" />
          <path
             style="fill:#390305"
             id="path34"
             d="m 289.55715,97.698577 -21.34,-5.6 -16.95,18.510003 8.78,1.3 c 0,0 4.61,-7.11 6.86,-8.73 a 63.11,63.11 0 0 1 6.45,-2.81 z"
             class="cls-2" />
          <circle
             transform="scale(1,-1)"
             r="8.4553719"
             cy="-116.58857"
             cx="278.01715"
             id="path5026"
             style="color:#000000;clip-rule:nonzero;display:inline;overflow:visible;visibility:visible;opacity:1;isolation:auto;mix-blend-mode:normal;color-interpolation:sRGB;color-interpolation-filters:linearRGB;solid-color:#000000;solid-opacity:1;fill:#390305;fill-opacity:1;fill-rule:nonzero;stroke:none;stroke-width:0.99999994;stroke-linecap:butt;stroke-linejoin:miter;stroke-miterlimit:4;stroke-dasharray:none;stroke-dashoffset:0;stroke-opacity:1;color-rendering:auto;image-rendering:auto;shape-rendering:auto;text-rendering:auto;enable-background:accumulate" />
        </g>
      </g>
    </g>
  </g>
</svg>
