<svg xmlns="http://www.w3.org/2000/svg" viewBox="0 0 32.73 32.73"><defs><style>.cls-1{fill:none;}.cls-2{fill:#cc3d3e;}.cls-3{fill:#f4e383;}</style></defs><title>kill</title><g id="Слой_2" data-name="Слой 2"><g id="Слой_1-2" data-name="Слой 1"><circle class="cls-1" cx="16.37" cy="16.37" r="16.37"/><path class="cls-2" d="M13.62,23.53h1.23v1.73a.46.46,0,0,0,.46.46H17a.46.46,0,0,0,.46-.46V23.53h1.23v1.73a.46.46,0,0,0,.46.46h1.72a.46.46,0,0,0,.46-.46V21.89A7.86,7.86,0,0,0,26,15c0-4.44-4.29-8-9.59-8s-9.59,3.6-9.59,8A7.77,7.77,0,0,0,11,21.69v1.84Zm-1.13-4.2a2.7,2.7,0,1,1,2.7-2.7A2.7,2.7,0,0,1,12.49,19.34Zm4.84,1.28H15.4A.48.48,0,0,1,15,19.9l1-1.67a.48.48,0,0,1,.82,0l1,1.67A.48.48,0,0,1,17.33,20.61Zm2.91-1.28a2.7,2.7,0,1,1,2.7-2.7A2.7,2.7,0,0,1,20.24,19.34Z"/><path class="cls-2" d="M11,23.53v1.73a.46.46,0,0,0,.46.46h1.72a.46.46,0,0,0,.46-.46V23.53Z"/><circle class="cls-3" cx="12.49" cy="16.65" r="1.94"/></g></g></svg>