<svg xmlns="http://www.w3.org/2000/svg" viewBox="0 0 21.29 22.53" width="128" height="128">
    <defs>
        <style>.cls-1{fill:#fff;}.cls-2{fill:#ffffff;}</style>
    </defs>
    <title>operator</title>
    <g id="Слой_2" data-name="Слой 2">
        <g id="Слой_1-2" data-name="Слой 1">
            <path class="cls-1" d="M9.4.66"/>
            <path class="cls-1"
                  d="M16,1.52H5.32L0,10.74l6,7,9.12.29,6.22-7.32Zm-.45,14H5.77L.9,10.25l4.87-7.4h9.75l4.87,7.4Z"/>
            <polygon class="cls-1" points="4.81 19.59 0 13.34 0 11.87 5.15 17.79 4.81 19.59"/>
            <polygon class="cls-1" points="6.05 18.83 8.15 20.48 8.66 22.34 5.71 20.64 6.05 18.83"/>
            <polygon class="cls-1"
                     points="5.79 0 5.79 1.49 7.88 5.83 9.83 5.83 9.83 6.17 11.46 6.17 11.46 5.83 13.41 5.83 15.5 1.49 15.5 0 5.79 0"/>
            <polygon class="cls-1"
                     points="16.48 19.59 21.29 13.34 21.29 11.87 16.14 17.79 16.48 19.59"/>
            <polygon class="cls-1"
                     points="15.24 18.83 13.14 20.48 12.63 22.34 15.58 20.64 15.24 18.83"/>
            <polygon class="cls-1"
                     points="11.85 20.5 11.03 20.5 10.26 20.5 9.44 20.5 9.94 22.53 10.64 22.08 11.35 22.53 11.85 20.5"/>
            <circle class="cls-1" cx="10.64" cy="13.74" r="5.93"/>
            <path class="cls-2"
                  d="M10.64,8.06A5.68,5.68,0,1,1,5,13.74a5.69,5.69,0,0,1,5.68-5.68m0-.5a6.18,6.18,0,1,0,6.18,6.18,6.18,6.18,0,0,0-6.18-6.18Z"/>
        </g>
    </g>
</svg>