<?xml version="1.0" encoding="utf-8"?>
<!-- Generator: Adobe Illustrator 23.0.2, SVG Export Plug-In . SVG Version: 6.00 Build 0)  -->
<svg version="1.1" id="Layer_1" xmlns="http://www.w3.org/2000/svg" xmlns:xlink="http://www.w3.org/1999/xlink" x="0px" y="0px"
	 viewBox="0 0 128 128" enable-background="new 0 0 128 128" xml:space="preserve" width="128" height="128">
<title>operator-lvl4</title>
<g id="Слой_2">
	<g id="Слой_1-2">
		<path fill="#FFFFFF" d="M58,12.8"/>
		<path fill="#FFFFFF" d="M89.9,16.9H38.3L12.6,61.5l29,33.8l44,1.4l30-35.3L89.9,16.9z M87.7,84.5H40.5L17,59.1l23.5-35.7h47.1
			l23.5,35.7L87.7,84.5z"/>
		<polygon fill="#FFFFFF" points="35.8,104.2 12.6,74 12.6,66.9 37.5,95.5 		"/>
		<polygon fill="#FFFFFF" points="41.8,100.5 52,108.5 54.4,117.5 40.2,109.3 		"/>
		<polygon fill="#FFFFFF" points="40.6,9.6 40.6,16.8 50.7,37.8 60.1,37.8 60.1,39.4 68,39.4 68,37.8 77.4,37.8 87.5,16.8 87.5,9.6 
					"/>
		<polygon fill="#FFFFFF" points="92.2,104.2 115.4,74 115.4,66.9 90.6,95.5 		"/>
		<polygon fill="#FFFFFF" points="86.2,100.5 76.1,108.5 73.6,117.5 87.9,109.3 		"/>
		<polygon fill="#FFFFFF" points="69.8,108.6 65.9,108.6 62.2,108.6 58.2,108.6 60.6,118.4 64,116.2 67.4,118.4 		"/>
		<circle cx="64" cy="76" r="28.6"/>
		<path d="M64,48.5c15.1-0.1,27.5,12.1,27.6,27.2c0.1,15.1-12.1,27.5-27.2,27.6c-15.1,0.1-27.5-12.1-27.6-27.2c0-0.1,0-0.1,0-0.2
			c0-15.1,12.3-27.4,27.4-27.4 M64.2,46.1c-16.5,0-29.8,13.4-29.8,29.8s13.4,29.8,29.8,29.8S94,92.4,94,76S80.7,46.1,64.2,46.1
			C64.2,46.1,64.2,46.1,64.2,46.1z"/>
	</g>
</g>
</svg>
