<svg xmlns="http://www.w3.org/2000/svg" viewBox="0 0 32.73 32.73"><defs><style>.cls-1,.cls-2,.cls-4{fill:none;}.cls-2{stroke:#f4e383;}.cls-2,.cls-4{stroke-linecap:round;stroke-linejoin:round;}.cls-3{fill:#f4e383;}.cls-4{stroke:#cc3d3e;stroke-dasharray:6;}</style></defs><title>operate-storage</title><g id="Слой_2" data-name="Слой 2"><g id="Слой_1-2" data-name="Слой 1"><circle class="cls-1" cx="16.37" cy="16.37" r="16.37"/><path class="cls-2" d="M22.11,9.75a15.54,15.54,0,0,0-11.49,0,30.59,30.59,0,0,0,0,13.22,15.54,15.54,0,0,0,11.49,0,30.74,30.74,0,0,0,.72-6.61A30.74,30.74,0,0,0,22.11,9.75Z"/><path class="cls-3" d="M9.93,19.46a17.54,17.54,0,0,0,.68,3.79,20.43,20.43,0,0,0,11.49,0,17.6,17.6,0,0,0,.7-4.08C22.82,18.88,9.79,17.41,9.93,19.46Z"/><line class="cls-4" x1="16.37" y1="11.72" x2="16.37" y2="15.77"/><line class="cls-4" x1="18.39" y1="13.75" x2="14.34" y2="13.75"/></g></g></svg>