<svg xmlns="http://www.w3.org/2000/svg" viewBox="0 0 32.73 32.73"><defs><style>.cls-1,.cls-3{fill:none;}.cls-2{fill:#f4e383;}.cls-3{stroke:#cc3d3e;stroke-linecap:round;stroke-linejoin:round;}.cls-4{fill:#565656;}</style></defs><title>operate-spawn</title><g id="Слой_2" data-name="Слой 2"><g id="Слой_1-2" data-name="Слой 1"><circle class="cls-1" cx="16.37" cy="16.37" r="16.37"/><circle class="cls-2" cx="16.37" cy="16.8" r="5"/><path class="cls-3" d="M11.9,23.6A8.13,8.13,0,0,1,16.37,8.67"/><path class="cls-3" d="M20.84,10a8.13,8.13,0,0,1-4.47,14.93"/><line class="cls-3" x1="11.9" y1="28.36" x2="11.9" y2="23.6"/><line class="cls-3" x1="20.84" y1="23.8" x2="20.84" y2="28.36"/><line class="cls-3" x1="20.84" y1="5.24" x2="20.84" y2="10.01"/><line class="cls-3" x1="11.9" y1="10.01" x2="11.9" y2="5.24"/><path class="cls-4" d="M16.69,19.68l2.77-4a.4.4,0,0,0-.32-.62H13.59a.4.4,0,0,0-.32.62l2.77,4A.4.4,0,0,0,16.69,19.68Z"/></g></g></svg>