<svg xmlns="http://www.w3.org/2000/svg" viewBox="0 0 32.73 32.73"><defs><style>.cls-1,.cls-4{fill:none;}.cls-2{fill:#cc3d3e;}.cls-3{fill:#f4e383;}.cls-4{stroke:#cc3d3e;stroke-linecap:round;stroke-linejoin:round;}</style></defs><title>operate-extension</title><g id="Слой_2" data-name="Слой 2"><g id="Слой_1-2" data-name="Слой 1"><circle class="cls-1" cx="16.37" cy="16.37" r="16.37"/><path class="cls-2" d="M27,20.48l-.16,0a.49.49,0,0,1-.3-.62,10.7,10.7,0,0,0,.61-3.56.53.53,0,0,1,.48-.53h0a.45.45,0,0,1,.48.43v.1a11.67,11.67,0,0,1-.66,3.88A.49.49,0,0,1,27,20.48Zm-21.4-.3a.49.49,0,0,1-.46-.34,11.78,11.78,0,0,1-.48-2.22,11.92,11.92,0,0,1-.08-1.38c0-.13,0-.26,0-.4a.53.53,0,0,1,.5-.47.49.49,0,0,1,.47.5c0,.12,0,.24,0,.36a11,11,0,0,0,.51,3.3.49.49,0,0,1-.32.61ZM27,12.86a.49.49,0,0,1-.46-.32,10.71,10.71,0,0,0-1.85-3.2.49.49,0,1,1,.74-.62,11.7,11.7,0,0,1,2,3.49.49.49,0,0,1-.46.65ZM5.88,12.57a.49.49,0,0,1-.45-.67A11.75,11.75,0,0,1,7.55,8.47a.49.49,0,1,1,.73.64,10.77,10.77,0,0,0-1.94,3.15A.49.49,0,0,1,5.88,12.57ZM22.07,7a.49.49,0,0,1-.25-.07,10.74,10.74,0,0,0-3.46-1.3.49.49,0,1,1,.18-1,11.72,11.72,0,0,1,3.78,1.42.49.49,0,0,1-.25.91ZM10.93,6.86a.49.49,0,0,1-.23-.91,11.73,11.73,0,0,1,3.82-1.31.49.49,0,0,1,.15,1,10.73,10.73,0,0,0-3.5,1.2A.48.48,0,0,1,10.93,6.86Z"/><path class="cls-3" d="M26.83,21.55A11.77,11.77,0,0,1,5.9,21.49c-.23-.45,3.56-5.35,10.48-5.35S27.08,21.08,26.83,21.55Z"/><line class="cls-4" x1="16.37" y1="24.29" x2="16.37" y2="20.39"/><polyline class="cls-4" points="14.32 22.59 16.37 20.09 18.41 22.59"/></g></g></svg>