<svg xmlns="http://www.w3.org/2000/svg" viewBox="0 0 32.73 32.73"><defs><style>.cls-1,.cls-2,.cls-4,.cls-5{fill:none;}.cls-2,.cls-5{stroke:#f4e383;}.cls-2,.cls-4,.cls-5{stroke-linecap:round;stroke-linejoin:round;}.cls-3{fill:#f4e383;}.cls-4{stroke:#cc3d3e;}.cls-5{stroke-width:0.5px;}</style></defs><title>extend-mineral</title><g id="Слой_2" data-name="Слой 2"><g id="Слой_1-2" data-name="Слой 1"><circle class="cls-1" cx="16.37" cy="16.37" r="16.37"/><path class="cls-2" d="M19.11,16.37h0a2.74,2.74,0,0,1-2.74,2.74h0a2.74,2.74,0,0,1-2.74-2.74h0a2.74,2.74,0,0,1,2.74-2.74h0"/><path class="cls-3" d="M16.37,17.68h0A1.32,1.32,0,0,1,15,16.37h0A1.32,1.32,0,0,1,16.37,15h0a1.32,1.32,0,0,1,1.32,1.32h0A1.32,1.32,0,0,1,16.37,17.68Z"/><line class="cls-4" x1="23.21" y1="16.43" x2="27.12" y2="16.43"/><polyline class="cls-4" points="24.92 14.39 27.41 16.43 24.92 18.47"/><line class="cls-4" x1="9.52" y1="16.49" x2="5.61" y2="16.49"/><polyline class="cls-4" points="7.81 14.45 5.32 16.49 7.81 18.53"/><path class="cls-5" d="M12.68,9.3h0A3.38,3.38,0,0,0,9.3,12.68h0"/><path class="cls-5" d="M20,23.43h0A3.38,3.38,0,0,0,23.43,20h0"/><path class="cls-5" d="M23.43,12.68h0A3.38,3.38,0,0,0,20,9.3h0"/><path class="cls-5" d="M9.3,20h0a3.38,3.38,0,0,0,3.38,3.38h0"/></g></g></svg>