<svg xmlns="http://www.w3.org/2000/svg" viewBox="0 0 32.73 32.73"><defs><style>.cls-1,.cls-2,.cls-3,.cls-5{fill:none;}.cls-2,.cls-3{stroke:#f4e383;stroke-width:1.2px;}.cls-2{stroke-miterlimit:10;}.cls-3,.cls-5{stroke-linecap:round;stroke-linejoin:round;}.cls-4{fill:#f4e383;}.cls-5{stroke:#cc3d3e;}</style></defs><title>reinforce</title><g id="Слой_2" data-name="Слой 2"><g id="Слой_1-2" data-name="Слой 1"><circle class="cls-1" cx="16.37" cy="16.37" r="16.37"/><path class="cls-2" d="M15.92,7a17.24,17.24,0,0,1-6.7,3.69.67.67,0,0,0-.49.65v8.64a3.74,3.74,0,0,0,2,3.31l4.64,2.44a2.13,2.13,0,0,0,2,0L22,23.25a3.74,3.74,0,0,0,2-3.31V11.31a.67.67,0,0,0-.49-.65A17.24,17.24,0,0,1,16.82,7,.67.67,0,0,0,15.92,7Z"/><path class="cls-3" d="M20.28,20.28a5.54,5.54,0,1,1,0-7.83A5.51,5.51,0,0,1,20.28,20.28Z"/><line class="cls-3" x1="20.28" y1="12.45" x2="19.38" y2="13.35"/><line class="cls-3" x1="13.43" y1="19.3" x2="12.53" y2="20.2"/><circle class="cls-4" cx="16.37" cy="16.37" r="1.37"/><path class="cls-5" d="M17.73,13.88l.11-.12a0,0,0,0,1,.05,0l-.05.16A1.82,1.82,0,0,0,19.2,16.3l.16,0a0,0,0,0,1,0,.06l-.16,0a1.82,1.82,0,0,0-1.36,2.36l.05.16a0,0,0,0,1-.05,0l-.11-.12a1.82,1.82,0,0,0-2.72,0l-.11.12a0,0,0,0,1-.05,0l.05-.16a1.82,1.82,0,0,0-1.36-2.36l-.16,0a0,0,0,0,1,0-.06l.16,0a1.82,1.82,0,0,0,1.36-2.36l-.05-.16a0,0,0,0,1,.05,0l.11.12A1.82,1.82,0,0,0,17.73,13.88Z"/></g></g></svg>