<svg xmlns="http://www.w3.org/2000/svg" viewBox="0 0 32.73 32.73"><defs><style>.cls-1,.cls-2,.cls-4{fill:none;}.cls-2{stroke:#cc3d3e;stroke-linecap:round;stroke-linejoin:round;}.cls-3{fill:#f4e383;}.cls-4{stroke:#f4e383;stroke-miterlimit:10;}</style></defs><title>renew</title><g id="Слой_2" data-name="Слой 2"><g id="Слой_1-2" data-name="Слой 1"><circle class="cls-1" cx="16.37" cy="16.37" r="16.37"/><path class="cls-2" d="M17.79,7.53A9.36,9.36,0,0,1,25,20"/><path class="cls-2" d="M7.37,20A9.36,9.36,0,0,1,14.58,7.53"/><path class="cls-2" d="M23.37,22.83A9.38,9.38,0,0,1,9,22.83"/><circle class="cls-3" cx="14.58" cy="7.53" r="0.97"/><circle class="cls-3" cx="24.97" cy="20.02" r="0.97"/><circle class="cls-3" cx="9" cy="22.83" r="0.97"/><path class="cls-4" d="M21.42,14.16l-2.11,2.11a2,2,0,0,1-2.85,0h0a2,2,0,0,1,0-2.85l2.11-2.11"/><path class="cls-4" d="M11.49,18.39l2.11-2.11a2,2,0,0,1,2.85,0h0a2,2,0,0,1,0,2.85l-2.11,2.11"/><line class="cls-2" x1="22.15" y1="14.86" x2="17.87" y2="10.58"/><line class="cls-2" x1="14.86" y1="22.15" x2="10.58" y2="17.87"/></g></g></svg>