<?xml version="1.0" encoding="utf-8"?>
<!-- Generator: Adobe Illustrator 23.0.1, SVG Export Plug-In . SVG Version: 6.00 Build 0)  -->
<svg version="1.1" id="Layer_1" xmlns="http://www.w3.org/2000/svg" xmlns:xlink="http://www.w3.org/1999/xlink" x="0px" y="0px"
	 viewBox="0 0 15.6 15.7" style="enable-background:new 0 0 15.6 15.7;" xml:space="preserve"
		width="100" height="100" >
<style type="text/css">
	.st0{opacity:0.4;fill:none;stroke:#FFFFFF;stroke-width:0.5;stroke-linejoin:bevel;enable-background:new    ;}
	.st1{opacity:0.2;fill:none;stroke:#FFFFFF;stroke-width:0.5;stroke-miterlimit:10;enable-background:new    ;}
	.st2{opacity:0.1;fill:none;stroke:#FFFFFF;stroke-width:0.5;stroke-linejoin:bevel;enable-background:new    ;}
	.st3{opacity:0.4;fill:none;stroke:#FFFFFF;stroke-linejoin:bevel;enable-background:new    ;}
	.st4{fill:none;stroke:#FFFFFF;stroke-linejoin:bevel;}
	.st5{opacity:0.6;fill:none;stroke:#FFFFFF;stroke-width:0.5;stroke-linejoin:bevel;enable-background:new    ;}
	.st6{opacity:0.1;fill:none;stroke:#FFFFFF;stroke-linejoin:bevel;enable-background:new    ;}
	.st7{opacity:0.6;fill:none;stroke:#FFFFFF;stroke-linejoin:bevel;enable-background:new    ;}
	.st8{opacity:0.6;fill:none;stroke:#FFFFFF;stroke-width:0.75;stroke-linejoin:bevel;enable-background:new    ;}
</style>
<g transform="translate(-51.88983,36.722034)">
	<g>
		<g>
			<g>
				<path class="st0" d="M53.1-25.2v-1.4l-0.9-0.9c-0.1-0.4-0.1-0.8-0.1-1.2c0-0.4,0-0.7,0.1-1.1h2.6"/>
				<path class="st1" d="M61.5-34.3l1-0.9h1.4c1,0.6,1.8,1.4,2.4,2.4v2.3l1.1,1.1"/>
				<path class="st2" d="M64.9-23.1c-0.9,0.8-1.9,1.3-3,1.6l-1.1-1.1"/>
				<path class="st3" d="M58.9-21.4c-1.5-0.2-3-0.9-4.2-1.9"/>
				<line class="st5" x1="64.4" y1="-31" x2="64.4" y2="-28.8"/>
				<polyline class="st0" points="64.4,-26.6 64.4,-25.1 63.2,-25.1 62.5,-24.5 				"/>
				<polyline class="st3" points="61,-24.3 59.8,-24.3 59.8,-26 				"/>
				<polyline class="st2" points="57.7,-24 56.5,-24 56.5,-25.7 54.9,-25.7 54.9,-28.4 				"/>
				<polyline class="st7" points="55.9,-31.2 55.9,-32.4 56.8,-33.3 58.2,-33.3 58.9,-32.7 				"/>
				<polyline class="st1" points="60.6,-33 62.1,-33 63.1,-32.1 				"/>				
			</g>
			<path class="st1" d="M58.2-35.4h-2.3c-0.9,0.5-1.6,1.2-2.3,2v0.9l0.8,0.8"/>
			<path class="st3" d="M65.6-24.3c0.3-0.3,0.5-0.7,0.7-1v-3.2"/>
		</g>
	</g>
</g>
</svg>
