<svg xmlns="http://www.w3.org/2000/svg" viewBox="0 0 32.73 32.73"><defs><style>.cls-1,.cls-2,.cls-4{fill:none;}.cls-2{stroke:#cc3d3e;}.cls-2,.cls-4{stroke-linecap:round;stroke-linejoin:round;}.cls-3{fill:#f4e383;}.cls-4{stroke:#f4e383;}</style></defs><title>sight</title><g id="Слой_2" data-name="Слой 2"><g id="Слой_1-2" data-name="Слой 1"><circle class="cls-1" cx="16.37" cy="16.37" r="16.37"/><path class="cls-2" d="M7.63,12.59A8.84,8.84,0,1,1,20.14,25.1"/><path class="cls-3" d="M10.42,24.37l0-1.62a.42.42,0,0,0-.42-.42l-1.62,0,1.56-1.56a.42.42,0,0,1,.3-.12h1.44a.42.42,0,0,1,.42.42V22.5a.42.42,0,0,1-.12.3Z"/><path class="cls-3" d="M24.54,10.29l.55-2.44a.18.18,0,0,0-.21-.21l-2.44.55a.18.18,0,0,0-.09.3l1.88,1.88A.18.18,0,0,0,24.54,10.29Z"/><line class="cls-2" x1="19.49" y1="23.62" x2="10.53" y2="14.66"/><line class="cls-4" x1="23.74" y1="9" x2="11.48" y2="21.25"/></g></g></svg>