<svg xmlns="http://www.w3.org/2000/svg" viewBox="0 0 32.73 32.73"><defs><style>.cls-1,.cls-2,.cls-3{fill:none;}.cls-2{stroke:#f4e383;stroke-width:1.2px;}.cls-2,.cls-3{stroke-linecap:round;stroke-linejoin:round;}.cls-3{stroke:#cc3d3e;}.cls-4{fill:#f4e383;}</style></defs><title>summon</title><g id="Слой_2" data-name="Слой 2"><g id="Слой_1-2" data-name="Слой 1"><circle class="cls-1" cx="16.37" cy="16.37" r="16.37"/><polygon class="cls-2" points="20.25 14.45 20.25 9.96 16.37 7.72 12.48 9.96 12.48 14.45 16.37 16.7 20.25 14.45"/><path class="cls-3" d="M17.91,13V11.4a.14.14,0,0,0-.07-.12l-1.4-.81a.14.14,0,0,0-.14,0l-1.4.81a.14.14,0,0,0-.07.12V13a.14.14,0,0,0,.07.12l1.4.81a.14.14,0,0,0,.14,0l1.4-.81A.14.14,0,0,0,17.91,13Z"/><path class="cls-4" d="M22.72,21.29V19.67a.14.14,0,0,0-.07-.12l-1.4-.81a.14.14,0,0,0-.14,0l-1.4.81a.14.14,0,0,0-.07.12v1.62a.14.14,0,0,0,.07.12l1.4.81a.14.14,0,0,0,.14,0l1.4-.81A.14.14,0,0,0,22.72,21.29Z"/><polygon class="cls-2" points="25.07 22.73 25.07 18.23 21.18 15.99 17.29 18.23 17.29 22.73 21.18 24.97 25.07 22.73"/><path class="cls-4" d="M9.94,23.1,11.58,22a.55.55,0,0,1,.76.15l.54.8L14.8,19a.2.2,0,0,0-.19-.29L10.23,19l.54.8a.55.55,0,0,1-.15.76L9,21.68Z"/></g></g></svg>