<svg xmlns="http://www.w3.org/2000/svg" viewBox="0 0 128 128" width="128" height="128"><defs><style>.a,.b{fill:none;}.b{stroke:#fff;stroke-miterlimit:10;stroke-width:4.04px;}.c{fill:#fff;}</style></defs><title>22</title><rect class="a" width="128" height="128"/><path class="b" d="M47.22,106.18C49.1,101,57,83.88,57,83.88H71s7.85,17.12,9.73,22.3Z"/><polyline class="b" points="93.39 114.19 93.39 99.83 75.55 93.97"/><polygon class="c" points="63.98 107 73.79 70.27 54.17 70.24 63.98 107"/><circle class="c" cx="93.39" cy="117.39" r="6.06"/><circle class="c" cx="34.5" cy="117.39" r="6.06"/><polyline class="b" points="34.5 114.19 34.5 99.83 52.34 93.97"/><path class="c" d="M62.82,9,36.2,47.28,22.37,86.78a1.3,1.3,0,0,0,1.16,1.91L64,81.12l40.45,7.57a1.31,1.31,0,0,0,1.16-1.91L91.7,47.17,65.14,9A1.31,1.31,0,0,0,62.82,9Z"/></svg>