<?xml version="1.0" encoding="utf-8"?>
<!-- Generator: Adobe Illustrator 24.0.1, SVG Export Plug-In . SVG Version: 6.00 Build 0)  -->
<svg version="1.1" xmlns="http://www.w3.org/2000/svg" xmlns:xlink="http://www.w3.org/1999/xlink" x="0px" y="0px"
	 viewBox="0 0 429.2 429.2" enable-background="new 0 0 429.2 429.2" xml:space="preserve" width="128" height="128">
<g id="Guides_For_Artboard">
</g>
<g id="Layer_1">
	<g>
		<path fill-rule="evenodd" clip-rule="evenodd" fill="#633B84" d="M213.7,12.6c27.6-0.1,42.8,31.4,63.2,52.5
			c-20,2.8-42.1,18.3-62.9,18.4c-20.8,0.1-43-15.2-63-17.8C171.2,44.4,186.2,12.8,213.7,12.6L213.7,12.6z M311.8,85.1
			c28.5,6.9,63.4,4,77.3,27.8c13.9,23.8-5.8,52.7-13.9,81c-12.5-15.9-36.9-27.3-47.4-45.3C317.4,130.6,319.5,103.7,311.8,85.1
			L311.8,85.1z M53.8,195.3c-8.3-28.2-28.3-56.9-14.6-80.8c13.7-23.9,48.6-21.3,77.1-28.5c-7.6,18.8-5.2,45.6-15.5,63.6
			C90.5,167.6,66.2,179.2,53.8,195.3z"/>
		<path fill-rule="evenodd" clip-rule="evenodd" fill="#FFCC00" d="M273.6,111.5c14.3,8.2,12.5,29.3,17,46.2
			c-11-4.9-27.2-3.2-38-9.4c-10.8-6.2-17.7-21-27.4-27.9C242,115.6,259.2,103.3,273.6,111.5L273.6,111.5z M301.6,176.6
			c12.5,12.2,31.8,21,31.9,37.5c0.1,16.5-19.1,25.5-31.5,37.8c-1.3-11.9-10.8-25.2-10.8-37.6C291,201.8,300.4,188.5,301.6,176.6
			L301.6,176.6z M291,270.9c-4.3,16.9-2.3,38-16.6,46.4c-14.2,8.3-31.6-3.8-48.5-8.4c9.7-7.1,16.4-21.9,27.2-28.2
			C263.9,274.4,280.1,275.8,291,270.9L291,270.9z M204.1,308.9c-16.8,4.7-34.1,17-48.4,8.8c-14.3-8.2-12.5-29.3-17-46.2
			c11,4.9,27.2,3.2,38,9.4C187.5,287.2,194.3,302,204.1,308.9L204.1,308.9z M127.7,252.7c-12.5-12.2-31.8-21-31.9-37.5
			c-0.1-16.5,19.1-25.5,31.5-37.8c1.3,11.9,10.8,25.2,10.8,37.6C138.2,227.4,128.8,240.7,127.7,252.7L127.7,252.7z M138.2,158.3
			c4.3-16.9,2.3-38,16.6-46.4c14.2-8.3,31.6,3.8,48.5,8.4c-9.7,7.1-16.4,21.9-27.2,28.2C165.3,154.9,149.1,153.4,138.2,158.3z"/>
	</g>
</g>
</svg>
