<?xml version="1.0" encoding="utf-8"?>
<!-- Generator: Adobe Illustrator 24.0.1, SVG Export Plug-In . SVG Version: 6.00 Build 0)  -->
<svg version="1.1" xmlns="http://www.w3.org/2000/svg" xmlns:xlink="http://www.w3.org/1999/xlink" x="0px" y="0px"
	 viewBox="0 0 935.4 935.4" enable-background="new 0 0 935.4 935.4" xml:space="preserve" width="128" height="128">
<g id="Guides_For_Artboard">
</g>
<g id="Layer_1">
	<g>
		<path fill-rule="evenodd" clip-rule="evenodd" fill="#FFFFFF" d="M467.7,15.8c249.6,0,452,202.4,452,452
			c0,249.6-202.4,452-452,452c-249.6,0-452-202.4-452-452C15.8,218.2,218.2,15.8,467.7,15.8L467.7,15.8z M449.9,418
			c-31.4,25.4-91.7,42.7-160.9,42.7c-101.6,0-184-37.1-184-82.9c0-35.1,48.6-65.2,117.3-77.2c6.6,66.5,91,119.9,190.9,119.9
			C425.7,420.5,438,419.6,449.9,418c14.4-37.8,11.9-100.4-9.8-166.2c-31.8-96.5-92.8-163.2-136.2-148.9
			c-33.4,11-46.7,66.6-36.7,135.5c65.3-14.5,142.3,48.9,173.6,143.8C444.7,394.2,447.7,406.2,449.9,418L449.9,418z M449.9,517.5
			c-2.2,11.8-5.2,23.7-9.1,35.8C409.5,648.1,332.4,711.6,267.2,697c-10,68.9,3.3,124.5,36.7,135.5c43.5,14.3,104.5-52.4,136.2-148.9
			C461.7,617.9,464.2,555.3,449.9,517.5c-11.8-1.6-24.2-2.5-36.8-2.5c-99.9,0-184.3,53.4-190.9,119.9
			c-68.6-12-117.3-42.1-117.3-77.2c0-45.8,82.4-82.9,184-82.9C358.2,474.8,418.5,492,449.9,517.5L449.9,517.5z M485.6,517.5
			c2.2,11.8,5.2,23.7,9.1,35.8C525.9,648.1,603,711.6,668.3,697c10,68.9-3.3,124.5-36.7,135.5c-43.5,14.3-104.5-52.4-136.2-148.9
			C473.7,617.9,471.2,555.3,485.6,517.5c11.8-1.6,24.2-2.5,36.8-2.5c99.9,0,184.3,53.4,190.9,119.9c68.6-12,117.3-42.1,117.3-77.2
			c0-45.8-82.4-82.9-184-82.9C577.3,474.8,517,492,485.6,517.5L485.6,517.5z M485.6,418c2.2-11.8,5.2-23.7,9.1-35.8
			c31.2-94.9,108.3-158.3,173.6-143.8c10-68.9-3.3-124.5-36.7-135.5c-43.5-14.3-104.5,52.4-136.2,148.9
			C473.7,317.5,471.2,380.2,485.6,418c11.8,1.6,24.2,2.5,36.8,2.5c99.9,0,184.3-53.4,190.9-119.9c68.6,12,117.3,42.1,117.3,77.2
			c0,45.8-82.4,82.9-184,82.9C577.3,460.6,517,443.4,485.6,418L485.6,418z M467.7,57.9c-226.3,0-409.8,183.5-409.8,409.8
			c0,226.3,183.5,409.8,409.8,409.8c226.3,0,409.8-183.5,409.8-409.8C877.5,241.4,694,57.9,467.7,57.9z"/>
	</g>
</g>
</svg>
